{"accessors":[{"bufferView":0,"byteOffset":0,"componentType":5126,"count":24,"max":[0.5625,2.8125,0.625],"min":[0.4375,1.0625,0.375],"normalized":false,"type":"VEC3"},{"bufferView":1,"byteOffset":0,"componentType":5126,"count":24,"max":[1,0.0000305817193293478,1,1],"min":[-1,-0.00003045622725,-1,-1],"normalized":false,"type":"VEC4"},{"bufferView":2,"byteOffset":0,"componentType":5126,"count":24,"max":[1,1,1],"min":[-1,-1,-1],"normalized":false,"type":"VEC3"},{"bufferView":3,"byteOffset":0,"componentType":5126,"count":24,"max":[0.281239032745361,0.437491416931152],"min":[0,0],"normalized":false,"type":"VEC2"},{"bufferView":4,"byteOffset":0,"componentType":5123,"count":36,"max":[23],"min":[0],"normalized":false,"type":"SCALAR"},{"bufferView":5,"byteOffset":0,"componentType":5126,"count":24,"max":[0.0609375014901161,0.0609370023012161,0.0609370023012161],"min":[-0.06093750149012,-0.12343800067902,-0.12343800067902],"normalized":false,"type":"VEC3"},{"bufferView":6,"byteOffset":0,"componentType":5126,"count":24,"max":[1,0.0000305817193293478,1,1],"min":[-1,-0.00003045622725,-1,-1],"normalized":false,"type":"VEC4"},{"bufferView":7,"byteOffset":0,"componentType":5126,"count":24,"max":[1,1,1],"min":[-1,-1,-1],"normalized":false,"type":"VEC3"},{"bufferView":8,"byteOffset":0,"componentType":5126,"count":24,"max":[0.468741893768311,0.48436713218689],"min":[0.218738079071045,0.234363317489624],"normalized":false,"type":"VEC2"},{"bufferView":9,"byteOffset":0,"componentType":5123,"count":36,"max":[23],"min":[0],"normalized":false,"type":"SCALAR"},{"bufferView":10,"byteOffset":0,"componentType":5126,"count":24,"max":[0.5625,0.0625,0.625],"min":[0.4375,0,0.375],"normalized":false,"type":"VEC3"},{"bufferView":11,"byteOffset":0,"componentType":5126,"count":24,"max":[1,0.0000305817193293478,1,1],"min":[-1,-0.00003045622725,-1,-1],"normalized":false,"type":"VEC4"},{"bufferView":12,"byteOffset":0,"componentType":5126,"count":24,"max":[1,1,1],"min":[-1,-1,-1],"normalized":false,"type":"VEC3"},{"bufferView":13,"byteOffset":0,"componentType":5126,"count":24,"max":[0.515617609024048,0.499992370605469],"min":[0,0],"normalized":false,"type":"VEC2"},{"bufferView":14,"byteOffset":0,"componentType":5123,"count":36,"max":[23],"min":[0],"normalized":false,"type":"SCALAR"},{"bufferView":15,"byteOffset":0,"componentType":5126,"count":24,"max":[0.5625,0.3125,0.625],"min":[0.4375,0.25,0.375],"normalized":false,"type":"VEC3"},{"bufferView":16,"byteOffset":0,"componentType":5126,"count":24,"max":[1,0.0000305817193293478,1,1],"min":[-1,-0.00003045622725,-1,-1],"normalized":false,"type":"VEC4"},{"bufferView":17,"byteOffset":0,"componentType":5126,"count":24,"max":[1,1,1],"min":[-1,-1,-1],"normalized":false,"type":"VEC3"},{"bufferView":18,"byteOffset":0,"componentType":5126,"count":24,"max":[0.531242847442627,0.437491416931152],"min":[0.187487602233887,0.0624856948852539],"normalized":false,"type":"VEC2"},{"bufferView":19,"byteOffset":0,"componentType":5123,"count":36,"max":[23],"min":[0],"normalized":false,"type":"SCALAR"},{"bufferView":20,"byteOffset":0,"componentType":5126,"count":24,"max":[0.5625,0.25,0.4375],"min":[0.4375,0.0625,0.375],"normalized":false,"type":"VEC3"},{"bufferView":21,"byteOffset":0,"componentType":5126,"count":24,"max":[1,0.0000305817193293478,1,1],"min":[-1,-0.00003045622725,-1,-1],"normalized":false,"type":"VEC4"},{"bufferView":22,"byteOffset":0,"componentType":5126,"count":24,"max":[1,1,1],"min":[-1,-1,-1],"normalized":false,"type":"VEC3"},{"bufferView":23,"byteOffset":0,"componentType":5126,"count":24,"max":[0.515617609024048,0.531242847442627],"min":[0.12498664855957,0.187487602233887],"normalized":false,"type":"VEC2"},{"bufferView":24,"byteOffset":0,"componentType":5123,"count":36,"max":[23],"min":[0],"normalized":false,"type":"SCALAR"},{"bufferView":25,"byteOffset":0,"componentType":5126,"count":24,"max":[0.5625,0.25,0.625],"min":[0.4375,0.0625,0.5625],"normalized":false,"type":"VEC3"},{"bufferView":26,"byteOffset":0,"componentType":5126,"count":24,"max":[1,0.0000305817193293478,1,1],"min":[-1,-0.00003045622725,-1,-1],"normalized":false,"type":"VEC4"},{"bufferView":27,"byteOffset":0,"componentType":5126,"count":24,"max":[1,1,1],"min":[-1,-1,-1],"normalized":false,"type":"VEC3"},{"bufferView":28,"byteOffset":0,"componentType":5126,"count":24,"max":[0.531242847442627,0.531242847442627],"min":[0.140611886978149,0],"normalized":false,"type":"VEC2"},{"bufferView":29,"byteOffset":0,"componentType":5123,"count":36,"max":[23],"min":[0],"normalized":false,"type":"SCALAR"},{"bufferView":30,"byteOffset":0,"componentType":5126,"count":24,"max":[0.5625,0.375,0.5625],"min":[0.4375,0.3125,0.4375],"normalized":false,"type":"VEC3"},{"bufferView":31,"byteOffset":0,"componentType":5126,"count":24,"max":[1,0.0000305817193293478,1,1],"min":[-1,-0.00003045622725,-1,-1],"normalized":false,"type":"VEC4"},{"bufferView":32,"byteOffset":0,"componentType":5126,"count":24,"max":[1,1,1],"min":[-1,-1,-1],"normalized":false,"type":"VEC3"},{"bufferView":33,"byteOffset":0,"componentType":5126,"count":24,"max":[0.531242847442627,0.515617609024048],"min":[0.0624856948852539,0.0312352180480957],"normalized":false,"type":"VEC2"},{"bufferView":34,"byteOffset":0,"componentType":5123,"count":36,"max":[23],"min":[0],"normalized":false,"type":"SCALAR"},{"bufferView":35,"byteOffset":0,"componentType":5126,"count":24,"max":[0.5625,0.875,0.59375],"min":[0.4375,0.5,0.40625],"normalized":false,"type":"VEC3"},{"bufferView":36,"byteOffset":0,"componentType":5126,"count":24,"max":[1,0.0000305817193293478,1,1],"min":[-1,-0.00003045622725,-1,-1],"normalized":false,"type":"VEC4"},{"bufferView":37,"byteOffset":0,"componentType":5126,"count":24,"max":[1,1,1],"min":[-1,-1,-1],"normalized":false,"type":"VEC3"},{"bufferView":38,"byteOffset":0,"componentType":5126,"count":24,"max":[0.453116655349731,0.328114748001099],"min":[0.187487602233887,0],"normalized":false,"type":"VEC2"},{"bufferView":39,"byteOffset":0,"componentType":5123,"count":36,"max":[23],"min":[0],"normalized":false,"type":"SCALAR"},{"bufferView":40,"byteOffset":0,"componentType":5126,"count":24,"max":[0.59375,0.25,0.5625],"min":[0.40625,0.0625,0.4375],"normalized":false,"type":"VEC3"},{"bufferView":41,"byteOffset":0,"componentType":5126,"count":24,"max":[1,0.0000305817193293478,1,1],"min":[-1,-0.00003045622725,-1,-1],"normalized":false,"type":"VEC4"},{"bufferView":42,"byteOffset":0,"componentType":5126,"count":24,"max":[1,1,1],"min":[-1,-1,-1],"normalized":false,"type":"VEC3"},{"bufferView":43,"byteOffset":0,"componentType":5126,"count":24,"max":[0.453116655349731,0.468741893768311],"min":[0,0.140611886978149],"normalized":false,"type":"VEC2"},{"bufferView":44,"byteOffset":0,"componentType":5123,"count":36,"max":[23],"min":[0],"normalized":false,"type":"SCALAR"},{"bufferView":45,"byteOffset":0,"componentType":5126,"count":24,"max":[0.59375,1.0625,0.6875],"min":[0.40625,0.875,0.3125],"normalized":false,"type":"VEC3"},{"bufferView":46,"byteOffset":0,"componentType":5126,"count":24,"max":[1,0.0000305817193293478,1,1],"min":[-1,-0.00003045622725,-1,-1],"normalized":false,"type":"VEC4"},{"bufferView":47,"byteOffset":0,"componentType":5126,"count":24,"max":[1,1,1],"min":[-1,-1,-1],"normalized":false,"type":"VEC3"},{"bufferView":48,"byteOffset":0,"componentType":5126,"count":24,"max":[0.374990463256836,0.374990463256836],"min":[0.187487602233887,0],"normalized":false,"type":"VEC2"},{"bufferView":49,"byteOffset":0,"componentType":5123,"count":36,"max":[23],"min":[0],"normalized":false,"type":"SCALAR"}],"asset":{"generator":"Godot Engine v4.3.stable.official@77dcf97d82cbfe4e4615475fa52ca03da645dbd8","version":"2.0"},"bufferViews":[{"buffer":0,"byteLength":288,"byteOffset":0,"byteStride":12,"target":34962},{"buffer":0,"byteLength":384,"byteOffset":288,"byteStride":16,"target":34962},{"buffer":0,"byteLength":288,"byteOffset":672,"byteStride":12,"target":34962},{"buffer":0,"byteLength":192,"byteOffset":960,"byteStride":8,"target":34962},{"buffer":0,"byteLength":72,"byteOffset":1152,"target":34963},{"buffer":0,"byteLength":288,"byteOffset":1224,"byteStride":12,"target":34962},{"buffer":0,"byteLength":384,"byteOffset":1512,"byteStride":16,"target":34962},{"buffer":0,"byteLength":288,"byteOffset":1896,"byteStride":12,"target":34962},{"buffer":0,"byteLength":192,"byteOffset":2184,"byteStride":8,"target":34962},{"buffer":0,"byteLength":72,"byteOffset":2376,"target":34963},{"buffer":0,"byteLength":288,"byteOffset":2448,"byteStride":12,"target":34962},{"buffer":0,"byteLength":384,"byteOffset":2736,"byteStride":16,"target":34962},{"buffer":0,"byteLength":288,"byteOffset":3120,"byteStride":12,"target":34962},{"buffer":0,"byteLength":192,"byteOffset":3408,"byteStride":8,"target":34962},{"buffer":0,"byteLength":72,"byteOffset":3600,"target":34963},{"buffer":0,"byteLength":288,"byteOffset":3672,"byteStride":12,"target":34962},{"buffer":0,"byteLength":384,"byteOffset":3960,"byteStride":16,"target":34962},{"buffer":0,"byteLength":288,"byteOffset":4344,"byteStride":12,"target":34962},{"buffer":0,"byteLength":192,"byteOffset":4632,"byteStride":8,"target":34962},{"buffer":0,"byteLength":72,"byteOffset":4824,"target":34963},{"buffer":0,"byteLength":288,"byteOffset":4896,"byteStride":12,"target":34962},{"buffer":0,"byteLength":384,"byteOffset":5184,"byteStride":16,"target":34962},{"buffer":0,"byteLength":288,"byteOffset":5568,"byteStride":12,"target":34962},{"buffer":0,"byteLength":192,"byteOffset":5856,"byteStride":8,"target":34962},{"buffer":0,"byteLength":72,"byteOffset":6048,"target":34963},{"buffer":0,"byteLength":288,"byteOffset":6120,"byteStride":12,"target":34962},{"buffer":0,"byteLength":384,"byteOffset":6408,"byteStride":16,"target":34962},{"buffer":0,"byteLength":288,"byteOffset":6792,"byteStride":12,"target":34962},{"buffer":0,"byteLength":192,"byteOffset":7080,"byteStride":8,"target":34962},{"buffer":0,"byteLength":72,"byteOffset":7272,"target":34963},{"buffer":0,"byteLength":288,"byteOffset":7344,"byteStride":12,"target":34962},{"buffer":0,"byteLength":384,"byteOffset":7632,"byteStride":16,"target":34962},{"buffer":0,"byteLength":288,"byteOffset":8016,"byteStride":12,"target":34962},{"buffer":0,"byteLength":192,"byteOffset":8304,"byteStride":8,"target":34962},{"buffer":0,"byteLength":72,"byteOffset":8496,"target":34963},{"buffer":0,"byteLength":288,"byteOffset":8568,"byteStride":12,"target":34962},{"buffer":0,"byteLength":384,"byteOffset":8856,"byteStride":16,"target":34962},{"buffer":0,"byteLength":288,"byteOffset":9240,"byteStride":12,"target":34962},{"buffer":0,"byteLength":192,"byteOffset":9528,"byteStride":8,"target":34962},{"buffer":0,"byteLength":72,"byteOffset":9720,"target":34963},{"buffer":0,"byteLength":288,"byteOffset":9792,"byteStride":12,"target":34962},{"buffer":0,"byteLength":384,"byteOffset":10080,"byteStride":16,"target":34962},{"buffer":0,"byteLength":288,"byteOffset":10464,"byteStride":12,"target":34962},{"buffer":0,"byteLength":192,"byteOffset":10752,"byteStride":8,"target":34962},{"buffer":0,"byteLength":72,"byteOffset":10944,"target":34963},{"buffer":0,"byteLength":288,"byteOffset":11016,"byteStride":12,"target":34962},{"buffer":0,"byteLength":384,"byteOffset":11304,"byteStride":16,"target":34962},{"buffer":0,"byteLength":288,"byteOffset":11688,"byteStride":12,"target":34962},{"buffer":0,"byteLength":192,"byteOffset":11976,"byteStride":8,"target":34962},{"buffer":0,"byteLength":72,"byteOffset":12168,"target":34963}],"buffers":[{"byteLength":12240,"uri":"sword_wood0.bin"}],"extensionsUsed":["GODOT_single_root"],"images":[{"uri":"textures%2Fmaterial_0_albedo.png"},{"uri":"textures%2Fmaterial_0_albedo2.png"}],"materials":[{"extensions":{},"pbrMetallicRoughness":{"baseColorFactor":[0.22322803735733,0.102241612970829,0.0466652028262615,1],"baseColorTexture":{"index":0},"metallicFactor":0,"roughnessFactor":1}},{"alphaCutoff":0.0500000007450581,"alphaMode":"MASK","doubleSided":true,"extensions":{},"name":"material_0","pbrMetallicRoughness":{"baseColorFactor":[0.99999988079071,0.99999988079071,0.99999988079071,1],"baseColorTexture":{"index":1},"metallicFactor":0,"roughnessFactor":1}}],"meshes":[{"extras":{"targetNames":[]},"primitives":[{"attributes":{"NORMAL":2,"POSITION":0,"TANGENT":1,"TEXCOORD_0":3},"indices":4,"material":0,"mode":4}]},{"extras":{"targetNames":[]},"primitives":[{"attributes":{"NORMAL":7,"POSITION":5,"TANGENT":6,"TEXCOORD_0":8},"indices":9,"material":0,"mode":4}]},{"extras":{"targetNames":[]},"primitives":[{"attributes":{"NORMAL":12,"POSITION":10,"TANGENT":11,"TEXCOORD_0":13},"indices":14,"material":1,"mode":4}]},{"extras":{"targetNames":[]},"primitives":[{"attributes":{"NORMAL":17,"POSITION":15,"TANGENT":16,"TEXCOORD_0":18},"indices":19,"material":1,"mode":4}]},{"extras":{"targetNames":[]},"primitives":[{"attributes":{"NORMAL":22,"POSITION":20,"TANGENT":21,"TEXCOORD_0":23},"indices":24,"material":1,"mode":4}]},{"extras":{"targetNames":[]},"primitives":[{"attributes":{"NORMAL":27,"POSITION":25,"TANGENT":26,"TEXCOORD_0":28},"indices":29,"material":1,"mode":4}]},{"extras":{"targetNames":[]},"primitives":[{"attributes":{"NORMAL":32,"POSITION":30,"TANGENT":31,"TEXCOORD_0":33},"indices":34,"material":1,"mode":4}]},{"extras":{"targetNames":[]},"primitives":[{"attributes":{"NORMAL":37,"POSITION":35,"TANGENT":36,"TEXCOORD_0":38},"indices":39,"material":1,"mode":4}]},{"extras":{"targetNames":[]},"primitives":[{"attributes":{"NORMAL":42,"POSITION":40,"TANGENT":41,"TEXCOORD_0":43},"indices":44,"material":1,"mode":4}]},{"extras":{"targetNames":[]},"primitives":[{"attributes":{"NORMAL":47,"POSITION":45,"TANGENT":46,"TEXCOORD_0":48},"indices":49,"material":1,"mode":4}]}],"nodes":[{"children":[1],"name":"Sword"},{"children":[2,3,4,5,6,7,8,9,10,11],"name":"Node3D","rotation":[-0.62863004207611,-0.32376578450203,0.628630042076111,-0.32376578450203],"scale":[0.344150006771088,0.3441501557827,0.3441501557827]},{"mesh":0,"name":"Blade","translation":[-0.4404039978981,-0.46855801343918,-0.6568940281868]},{"mesh":1,"name":"Tip","rotation":[-0.38268345594406,-0,0.00000000000000164113819376647,0.923879563808441],"translation":[0.059596199542284,2.39082002639771,-0.15689399838448]},{"mesh":2,"name":"Object_12","translation":[-0.4404039978981,-0.34355801343918,-0.6568940281868]},{"mesh":3,"name":"Object_14","translation":[-0.4404039978981,-0.34355801343918,-0.6568940281868]},{"mesh":4,"name":"Object_16","translation":[-0.4404039978981,-0.34355801343918,-0.6568940281868]},{"mesh":5,"name":"Object_18","translation":[-0.4404039978981,-0.34355801343918,-0.6568940281868]},{"mesh":6,"name":"Object_20","translation":[-0.4404039978981,-0.34355801343918,-0.6568940281868]},{"mesh":7,"name":"Object_22","translation":[-0.4404039978981,-0.46855801343918,-0.6568940281868]},{"mesh":8,"name":"Object_24","translation":[-0.4404039978981,-0.34355801343918,-0.6568940281868]},{"mesh":9,"name":"Object_26","translation":[-0.4404039978981,-0.46855801343918,-0.6568940281868]}],"samplers":[{"magFilter":9728,"minFilter":9728,"wrapS":10497,"wrapT":10497}],"scene":0,"scenes":[{"nodes":[0]}],"textures":[{"sampler":0,"source":0},{"sampler":0,"source":1}]}