# Blender 4.1.1
# www.blender.org
mtllib axe.mtl
o axe
v 0.015838 -0.093157 0.027230
v -0.038623 -0.093157 0.027230
v 0.015838 -0.093157 -0.027230
v -0.038623 -0.093157 -0.027230
v 0.015838 -0.038697 0.027230
v -0.038623 -0.038697 0.027230
v 0.015838 -0.038697 -0.027230
v -0.038623 -0.038697 -0.027230
v -0.038623 0.015763 -0.027230
v 0.015838 0.015763 -0.027230
v 0.015838 0.015763 0.027230
v -0.038623 0.015763 0.027230
v -0.093083 -0.038697 -0.027230
v -0.093083 -0.038697 0.027230
v -0.093083 0.015763 -0.027230
v -0.093083 0.015763 0.027230
v 0.070298 -0.038697 0.027230
v 0.070298 -0.038697 -0.027230
v 0.070298 0.015763 0.027230
v 0.070298 0.015763 -0.027230
v -0.038623 0.070224 -0.027230
v 0.015838 0.070224 -0.027230
v 0.015838 0.070224 0.027230
v -0.038623 0.070224 0.027230
v -0.093083 -0.093157 0.027230
v -0.093083 -0.093157 -0.027230
v -0.038623 -0.147618 0.027230
v -0.038623 -0.147618 -0.027230
v -0.093083 -0.147618 0.027230
v -0.093083 -0.147618 -0.027230
v -0.147543 -0.093157 -0.027230
v -0.147543 -0.038697 -0.027230
v -0.147543 -0.038697 0.027230
v -0.147543 -0.093157 0.027230
v -0.147543 -0.147618 0.027230
v -0.147543 -0.147618 -0.027230
v -0.093083 -0.202078 0.027230
v -0.093083 -0.202078 -0.027230
v -0.147543 -0.202078 0.027230
v -0.147543 -0.202078 -0.027230
v -0.202004 -0.093157 0.027230
v -0.202004 -0.093157 -0.027230
v -0.202004 -0.147618 0.027230
v -0.202004 -0.147618 -0.027230
v -0.202004 -0.202078 0.027230
v -0.202004 -0.202078 -0.027230
v -0.147543 -0.256539 0.027230
v -0.147543 -0.256539 -0.027230
v -0.256464 -0.147618 0.027230
v -0.256464 -0.147618 -0.027230
v -0.256464 -0.202078 0.027230
v -0.256464 -0.202078 -0.027230
v -0.202004 -0.256539 0.027230
v -0.202004 -0.256539 -0.027230
v -0.256464 -0.256539 0.027230
v -0.256464 -0.256539 -0.027230
v -0.202004 -0.310999 0.027230
v -0.202004 -0.310999 -0.027230
v -0.256464 -0.310999 -0.027230
v -0.310925 -0.202078 0.027230
v -0.310925 -0.202078 -0.027230
v -0.310925 -0.256539 0.027230
v -0.310925 -0.256539 -0.027230
v -0.256464 -0.310999 0.027230
v -0.310925 -0.310999 0.027230
v -0.310925 -0.310999 -0.027230
v -0.365385 -0.256539 0.027230
v -0.365385 -0.256539 -0.027230
v -0.256464 -0.365460 0.027230
v -0.256464 -0.365460 -0.027230
v -0.310925 -0.365460 0.027230
v -0.310925 -0.365460 -0.027230
v -0.365385 -0.310999 0.027230
v -0.365385 -0.310999 -0.027230
v -0.365385 -0.365460 0.027230
v -0.365385 -0.365460 -0.027230
v -0.310925 -0.419920 0.027230
v -0.310925 -0.419920 -0.027230
v -0.365385 -0.419920 0.027230
v -0.419846 -0.310999 0.027230
v -0.419846 -0.310999 -0.027230
v -0.419846 -0.365460 0.027230
v -0.419846 -0.365460 -0.027230
v -0.365385 -0.419920 -0.027230
v -0.419846 -0.419920 0.027230
v -0.419846 -0.419920 -0.027230
v -0.474306 -0.365460 0.027230
v -0.474306 -0.365460 -0.027230
v -0.474306 -0.419920 0.027230
v -0.365385 -0.474381 0.027230
v -0.365385 -0.474381 -0.027230
v -0.419846 -0.474381 0.027230
v -0.419846 -0.474381 -0.027230
v -0.474306 -0.419920 -0.027230
v -0.474306 -0.474381 0.027230
v -0.474306 -0.474381 -0.027230
v -0.419846 -0.528841 0.027230
v -0.419846 -0.528841 -0.027230
v -0.528767 -0.419920 0.027230
v -0.528767 -0.419920 -0.027230
v -0.528767 -0.474381 0.027230
v -0.528767 -0.474381 -0.027230
v -0.474306 -0.528841 0.027230
v -0.474306 -0.528841 -0.027230
v -0.528767 -0.528841 0.027230
v -0.528767 -0.528841 -0.027230
v -0.583227 -0.474381 0.027230
v -0.583227 -0.474381 -0.027230
v -0.583227 -0.528841 0.027230
v -0.583227 -0.528841 -0.027230
v -0.474306 -0.583302 0.027230
v -0.474306 -0.583302 -0.027230
v -0.528767 -0.583302 0.027230
v -0.528767 -0.583302 -0.027230
v -0.279570 -0.528841 0.027230
v -0.279570 -0.528841 -0.027230
v -0.279570 -0.583302 0.027230
v -0.279570 -0.583302 -0.027230
v -0.528767 -0.271943 0.027230
v -0.528767 -0.271943 -0.027230
v -0.583227 -0.271943 0.027230
v -0.583227 -0.271943 -0.027230
v -0.680067 -0.474381 0.027230
v -0.680067 -0.474381 -0.027230
v -0.680067 -0.333558 0.027230
v -0.680067 -0.333558 -0.027230
v -0.474306 -0.680142 0.027230
v -0.474306 -0.680142 -0.027230
v -0.333483 -0.680142 0.027230
v -0.333483 -0.680142 -0.027230
v -0.333483 -0.474381 0.027230
v -0.333483 -0.474381 -0.027230
v -0.333483 -0.528841 0.027230
v -0.333483 -0.528841 -0.027230
v -0.474306 -0.641632 0.027230
v -0.474306 -0.641632 -0.027230
v -0.528767 -0.641632 0.027230
v -0.528767 -0.641632 -0.027230
v -0.528767 -0.583868 0.027230
v -0.528767 -0.583868 -0.027230
v -0.583227 -0.583868 0.027230
v -0.583227 -0.583868 -0.027230
v -0.637707 -0.474381 0.027230
v -0.637707 -0.474381 -0.027230
v -0.637707 -0.528841 0.027230
v -0.637707 -0.528841 -0.027230
v -0.474306 -0.333558 0.027230
v -0.474306 -0.333558 -0.027230
v -0.528767 -0.333558 0.027230
v -0.528767 -0.333558 -0.027230
vn -0.0000 -1.0000 -0.0000
vn -0.0000 -0.0000 -1.0000
vn -0.0000 -0.0000 1.0000
vn 1.0000 -0.0000 -0.0000
vn -1.0000 -0.0000 -0.0000
vn -0.0000 1.0000 -0.0000
vn 0.8737 -0.4864 -0.0000
vn -0.5368 0.8437 -0.0000
vt 0.375000 0.000000
vt 0.625000 0.000000
vt 0.625000 0.250000
vt 0.375000 0.250000
vt 0.625000 0.500000
vt 0.375000 0.500000
vt 0.625000 0.750000
vt 0.375000 0.750000
vt 0.625000 1.000000
vt 0.375000 1.000000
vt 0.125000 0.500000
vt 0.125000 0.750000
vt 0.875000 0.500000
vt 0.875000 0.750000
s 0
usemtl stick
f 1/1/1 2/2/1 4/3/1 3/4/1
f 3/4/2 4/3/2 8/5/2 7/6/2
f 8/5/1 6/7/1 14/7/1 13/5/1
f 5/8/3 6/7/3 2/9/3 1/10/3
f 3/11/4 7/6/4 5/8/4 1/12/4
f 12/7/3 11/8/3 23/8/3 24/7/3
f 7/6/2 8/5/2 9/5/2 10/6/2
f 6/7/3 5/8/3 11/8/3 12/7/3
f 11/8/3 5/8/3 17/8/3 19/8/3
f 13/5/5 14/7/5 16/7/5 15/5/5
f 9/5/2 8/5/2 13/5/2 15/5/2
f 6/7/3 12/7/3 16/7/3 14/7/3
f 12/7/6 9/5/6 15/5/6 16/7/6
f 17/8/4 18/6/4 20/6/4 19/8/4
f 10/6/6 11/8/6 19/8/6 20/6/6
f 5/8/1 7/6/1 18/6/1 17/8/1
f 7/6/2 10/6/2 20/6/2 18/6/2
f 22/6/6 21/5/6 24/7/6 23/8/6
f 11/8/4 10/6/4 22/6/4 23/8/4
f 9/5/5 12/7/5 24/7/5 21/5/5
f 10/6/2 9/5/2 21/5/2 22/6/2
f 14/7/6 13/5/6 32/5/6 33/7/6
f 2/9/3 25/9/3 29/9/3 27/9/3
f 2/9/3 6/7/3 14/7/3 25/9/3
f 8/5/2 4/3/2 26/3/2 13/5/2
f 28/3/1 27/2/1 29/2/1 30/3/1
f 4/3/4 2/2/4 27/2/4 28/3/4
f 26/3/2 30/3/2 36/3/2 31/3/2
f 26/3/2 4/3/2 28/3/2 30/3/2
f 32/5/5 31/13/5 34/14/5 33/7/5
f 26/13/1 25/14/1 34/14/1 31/13/1
f 25/9/3 14/7/3 33/7/3 34/9/3
f 13/5/2 26/3/2 31/3/2 32/5/2
f 35/9/3 34/9/3 41/9/3 43/9/3
f 36/3/2 30/3/2 38/3/2 40/3/2
f 29/9/3 25/9/3 34/9/3 35/9/3
f 38/3/1 37/2/1 39/2/1 40/3/1
f 30/3/4 29/2/4 37/2/4 38/3/4
f 29/9/3 35/9/3 39/9/3 37/9/3
f 39/9/3 35/9/3 43/9/3 45/9/3
f 41/14/5 42/13/5 44/13/5 43/14/5
f 34/14/6 31/13/6 42/13/6 41/14/6
f 31/3/2 36/3/2 44/3/2 42/3/2
f 44/3/2 46/3/2 52/3/2 50/3/2
f 36/3/2 40/3/2 46/3/2 44/3/2
f 40/3/4 39/2/4 47/2/4 48/3/4
f 35/14/6 36/13/6 44/13/6 43/14/6
f 48/3/1 47/2/1 53/2/1 54/3/1
f 39/9/3 45/9/3 53/9/3 47/9/3
f 46/3/2 40/3/2 48/3/2 54/3/2
f 49/14/5 50/13/5 52/13/5 51/14/5
f 43/14/6 44/13/6 50/13/6 49/14/6
f 45/9/3 43/9/3 49/9/3 51/9/3
f 52/3/2 46/3/2 54/3/2 56/3/2
f 53/9/3 55/9/3 64/9/3 57/9/3
f 46/13/4 45/14/4 53/14/4 54/13/4
f 45/9/3 51/9/3 55/9/3 53/9/3
f 52/3/2 56/3/2 63/3/2 61/3/2
f 58/13/1 57/14/1 64/14/1 59/13/1
f 55/14/5 56/13/5 59/13/5 64/14/5
f 56/3/2 54/3/2 58/3/2 59/3/2
f 54/13/4 53/14/4 57/14/4 58/13/4
f 60/14/5 61/13/5 63/13/5 62/14/5
f 51/14/6 52/13/6 61/13/6 60/14/6
f 55/9/3 51/9/3 60/9/3 62/9/3
f 64/9/3 65/9/3 71/9/3 69/9/3
f 55/9/3 62/9/3 65/9/3 64/9/3
f 63/3/2 56/3/2 59/3/2 66/3/2
f 67/14/5 68/13/5 74/13/5 73/14/5
f 63/3/2 66/3/2 74/3/2 68/3/2
f 62/14/6 63/13/6 68/13/6 67/14/6
f 65/9/3 62/9/3 67/9/3 73/9/3
f 70/13/1 69/14/1 71/14/1 72/13/1
f 65/14/6 66/13/6 74/13/6 73/14/6
f 66/3/2 59/3/2 70/3/2 72/3/2
f 59/13/4 64/14/4 69/14/4 70/13/4
f 76/13/4 75/14/4 79/14/4 84/13/4
f 66/3/2 72/3/2 76/3/2 74/3/2
f 71/9/3 65/9/3 73/9/3 75/9/3
f 78/13/1 77/14/1 79/14/1 84/13/1
f 71/9/3 75/9/3 79/9/3 77/9/3
f 72/13/4 71/14/4 77/14/4 78/13/4
f 76/3/2 72/3/2 78/3/2 84/3/2
f 80/14/5 81/13/5 83/13/5 82/14/5
f 75/9/3 73/9/3 80/9/3 82/9/3
f 73/14/6 74/13/6 81/13/6 80/14/6
f 74/3/2 76/3/2 83/3/2 81/3/2
f 79/9/3 85/9/3 92/9/3 90/9/3
f 83/3/2 76/3/2 84/3/2 86/3/2
f 83/3/2 86/3/2 94/3/2 88/3/2
f 75/9/3 82/9/3 85/9/3 79/9/3
f 87/14/5 88/13/5 94/13/5 89/14/5
f 82/14/6 83/13/6 88/13/6 87/14/6
f 85/9/3 82/9/3 87/9/3 89/9/3
f 86/13/1 85/14/1 89/14/1 94/13/1
f 91/13/1 90/14/1 92/14/1 93/13/1
f 84/13/4 79/14/4 90/14/4 91/13/4
f 86/3/2 84/3/2 91/3/2 93/3/2
f 92/9/3 85/9/3 89/9/3 95/9/3
f 86/3/2 93/3/2 96/3/2 94/3/2
f 96/13/4 95/14/4 103/14/4 104/13/4
f 108/13/1 107/14/1 123/14/1 124/13/1
f 143/14/5 144/13/5 146/13/5 145/14/5
usemtl material
f 92/9/3 97/9/3 133/9/3 131/9/3
f 95/9/3 89/9/3 99/9/3 101/9/3
f 98/13/1 97/14/1 103/14/1 104/13/1
f 92/9/3 95/9/3 103/9/3 97/9/3
f 96/3/2 93/3/2 98/3/2 104/3/2
f 99/14/5 100/13/5 102/13/5 101/14/5
f 89/14/4 94/13/4 148/13/4 147/14/4
f 94/3/2 96/3/2 102/3/2 100/3/2
f 102/3/2 108/3/2 122/3/2 120/3/2
f 112/3/2 104/3/2 116/3/2 118/3/2
f 102/3/2 96/3/2 104/3/2 106/3/2
f 95/9/3 101/9/3 105/9/3 103/9/3
f 109/9/3 107/9/3 143/9/3 145/9/3
f 102/3/2 106/3/2 110/3/2 108/3/2
f 105/9/3 101/9/3 107/9/3 109/9/3
f 109/14/5 110/13/5 142/13/5 141/14/5
f 111/9/3 113/9/3 137/9/3 135/9/3
f 106/3/2 104/3/2 112/3/2 114/3/2
f 105/14/5 106/13/5 114/13/5 113/14/5
f 103/9/3 105/9/3 113/9/3 111/9/3
f 116/13/4 115/14/4 117/14/4 118/13/4
f 104/13/6 103/14/6 115/14/6 116/13/6
f 103/9/3 111/9/3 117/9/3 115/9/3
f 118/13/7 117/14/7 129/14/7 130/13/7
f 119/14/6 120/13/6 122/13/6 121/14/6
f 122/3/2 108/3/2 124/3/2 126/3/2
f 101/14/4 102/13/4 120/13/4 119/14/4
f 107/9/3 101/9/3 119/9/3 121/9/3
f 124/13/5 123/14/5 125/14/5 126/13/5
f 121/14/8 122/13/8 126/13/8 125/14/8
f 107/9/3 121/9/3 125/9/3 123/9/3
f 127/14/1 128/13/1 130/13/1 129/14/1
f 117/9/3 111/9/3 127/9/3 129/9/3
f 112/3/2 118/3/2 130/3/2 128/3/2
f 111/14/5 112/13/5 128/13/5 127/14/5
f 132/13/4 131/14/4 133/14/4 134/13/4
f 97/14/1 98/13/1 134/13/1 133/14/1
f 93/13/6 92/14/6 131/14/6 132/13/6
f 98/3/2 93/3/2 132/3/2 134/3/2
f 136/13/1 135/14/1 137/14/1 138/13/1
f 112/13/4 111/14/4 135/14/4 136/13/4
f 114/3/2 112/3/2 136/3/2 138/3/2
f 113/14/5 114/13/5 138/13/5 137/14/5
f 140/13/1 139/14/1 141/14/1 142/13/1
f 110/3/2 106/3/2 140/3/2 142/3/2
f 106/13/4 105/14/4 139/14/4 140/13/4
f 105/9/3 109/9/3 141/9/3 139/9/3
f 110/13/1 109/14/1 145/14/1 146/13/1
f 108/3/2 110/3/2 146/3/2 144/3/2
f 107/14/6 108/13/6 144/13/6 143/14/6
f 147/14/6 148/13/6 150/13/6 149/14/6
f 94/3/2 100/3/2 150/3/2 148/3/2
f 99/9/3 89/9/3 147/9/3 149/9/3
f 100/13/5 99/14/5 149/14/5 150/13/5
