# Blender 4.1.1
# www.blender.org
mtllib grass.mtl
o Plane.001
v 0.853553 0.900000 0.853553
v 0.853553 -0.100000 0.853553
v 0.146447 0.900000 0.146447
v 0.146447 -0.100000 0.146447
v 0.146447 0.900000 0.853553
v 0.146447 -0.100000 0.853553
v 0.853553 0.900000 0.146447
v 0.853553 -0.100000 0.146447
vn 0.7071 -0.0000 -0.7071
vn 0.7071 -0.0000 0.7071
vt 0.000000 1.000000
vt 0.000000 0.000000
vt 1.000000 0.000000
vt 1.000000 1.000000
s 0
usemtl Material.001
f 1/1/1 2/2/1 4/3/1 3/4/1
f 5/1/2 6/2/2 8/3/2 7/4/2
