# Blender 4.1.1
# www.blender.org
mtllib pickaxe.mtl
o pickaxe
v 0.026329 -0.093860 0.027230
v -0.028131 -0.093860 0.027230
v 0.026329 -0.093860 -0.027230
v -0.028131 -0.093860 -0.027230
v 0.026329 -0.039400 0.027230
v -0.028131 -0.039400 0.027230
v 0.026329 -0.039400 -0.027230
v -0.028131 -0.039400 -0.027230
v -0.028131 0.015060 -0.027230
v 0.026329 0.015060 -0.027230
v 0.026329 0.015060 0.027230
v -0.028131 0.015060 0.027230
v -0.082592 -0.039400 -0.027230
v -0.082592 -0.039400 0.027230
v -0.082592 0.015060 -0.027230
v -0.082592 0.015060 0.027230
v 0.080790 -0.039400 0.027230
v 0.080790 -0.039400 -0.027230
v 0.080790 0.015060 0.027230
v 0.080790 0.015060 -0.027230
v -0.028131 0.069521 -0.027230
v 0.026329 0.069521 -0.027230
v 0.026329 0.069521 0.027230
v -0.028131 0.069521 0.027230
v -0.082591 -0.093860 0.027230
v -0.082591 -0.093860 -0.027230
v -0.028131 -0.148321 0.027230
v -0.028131 -0.148321 -0.027230
v -0.082591 -0.148321 0.027230
v -0.082591 -0.148321 -0.027230
v -0.137052 -0.093860 -0.027230
v -0.137052 -0.039400 -0.027230
v -0.137052 -0.039400 0.027230
v -0.137052 -0.093860 0.027230
v -0.137052 -0.148321 0.027230
v -0.137052 -0.148321 -0.027230
v -0.082591 -0.202781 0.027230
v -0.082591 -0.202781 -0.027230
v -0.137052 -0.202781 0.027230
v -0.137052 -0.202781 -0.027230
v -0.191512 -0.093860 0.027230
v -0.191512 -0.093860 -0.027230
v -0.191512 -0.148321 0.027230
v -0.191512 -0.148321 -0.027230
v -0.191512 -0.202781 0.027230
v -0.191512 -0.202781 -0.027230
v -0.137052 -0.257242 0.027230
v -0.137052 -0.257242 -0.027230
v -0.245973 -0.148321 0.027230
v -0.245973 -0.148321 -0.027230
v -0.245973 -0.202781 0.027230
v -0.245973 -0.202781 -0.027230
v -0.191512 -0.257242 0.027230
v -0.191512 -0.257242 -0.027230
v -0.245973 -0.257242 0.027230
v -0.245973 -0.257242 -0.027230
v -0.191512 -0.311702 0.027230
v -0.191512 -0.311702 -0.027230
v -0.245973 -0.311702 -0.027230
v -0.300433 -0.202781 0.027230
v -0.300433 -0.202781 -0.027230
v -0.300433 -0.257242 0.027230
v -0.300433 -0.257242 -0.027230
v -0.245973 -0.311702 0.027230
v -0.300433 -0.311702 0.027230
v -0.300433 -0.311702 -0.027230
v -0.354894 -0.257242 0.027230
v -0.354894 -0.257242 -0.027230
v -0.245973 -0.366163 0.027230
v -0.245973 -0.366163 -0.027230
v -0.300433 -0.366163 0.027230
v -0.300433 -0.366163 -0.027230
v -0.354894 -0.311702 0.027230
v -0.354894 -0.311702 -0.027230
v -0.354894 -0.366163 0.027230
v -0.354894 -0.366163 -0.027230
v -0.300433 -0.420623 0.027230
v -0.300433 -0.420623 -0.027230
v -0.354894 -0.420623 0.027230
v -0.409354 -0.311702 0.027230
v -0.409354 -0.311702 -0.027230
v -0.409354 -0.366163 0.027230
v -0.409354 -0.366163 -0.027230
v -0.354894 -0.420623 -0.027230
v -0.409354 -0.420623 0.027230
v -0.409354 -0.420623 -0.027230
v -0.463815 -0.366163 0.027230
v -0.463815 -0.366163 -0.027230
v -0.463815 -0.420623 0.027230
v -0.354894 -0.475084 0.027230
v -0.354894 -0.475084 -0.027230
v -0.409354 -0.475084 0.027230
v -0.409354 -0.475084 -0.027230
v -0.463815 -0.420623 -0.027230
v -0.463815 -0.475084 0.027230
v -0.463815 -0.475084 -0.027230
v -0.409354 -0.529544 0.027230
v -0.409354 -0.529544 -0.027230
v -0.518275 -0.420623 0.027230
v -0.518275 -0.420623 -0.027230
v -0.518275 -0.475084 0.027230
v -0.518275 -0.475084 -0.027230
v -0.463815 -0.529544 0.027230
v -0.463815 -0.529544 -0.027230
v -0.518275 -0.529544 0.027230
v -0.518275 -0.529544 -0.027230
v -0.572735 -0.475084 0.027230
v -0.572735 -0.475084 -0.027230
v -0.572735 -0.529544 0.027230
v -0.572735 -0.529544 -0.027230
v -0.463815 -0.584004 0.027230
v -0.463815 -0.584004 -0.027230
v -0.518275 -0.584004 0.027230
v -0.518275 -0.584004 -0.027230
v -0.269079 -0.529544 0.027230
v -0.269079 -0.529544 -0.027230
v -0.269079 -0.584004 0.027230
v -0.269079 -0.584004 -0.027230
v -0.518275 -0.272646 0.027230
v -0.518275 -0.272646 -0.027230
v -0.572735 -0.272646 0.027230
v -0.572735 -0.272646 -0.027230
v -0.669576 -0.475084 0.027230
v -0.669576 -0.475084 -0.027230
v -0.669576 -0.334261 0.027230
v -0.669576 -0.334261 -0.027230
v -0.463815 -0.680845 0.027230
v -0.463815 -0.680845 -0.027230
v -0.322992 -0.680845 0.027230
v -0.322992 -0.680845 -0.027230
v -0.322992 -0.475084 0.027230
v -0.322992 -0.475084 -0.027230
v -0.322992 -0.529544 0.027230
v -0.322992 -0.529544 -0.027230
v -0.463815 -0.642335 0.027230
v -0.463815 -0.642335 -0.027230
v -0.518275 -0.642335 0.027230
v -0.518275 -0.642335 -0.027230
v -0.518275 -0.584571 0.027230
v -0.518275 -0.584571 -0.027230
v -0.572735 -0.584571 0.027230
v -0.572735 -0.584571 -0.027230
v -0.627216 -0.475084 0.027230
v -0.627216 -0.475084 -0.027230
v -0.627216 -0.529544 0.027230
v -0.627216 -0.529544 -0.027230
v -0.463815 -0.334261 0.027230
v -0.463815 -0.334261 -0.027230
v -0.518275 -0.334261 0.027230
v -0.518275 -0.334261 -0.027230
v -0.740920 -0.131443 0.007425
v -0.740920 -0.131443 -0.007425
v -0.755770 -0.131443 0.007425
v -0.755770 -0.131443 -0.007425
v -0.782175 -0.186642 0.007425
v -0.782175 -0.186642 -0.007425
v -0.782175 -0.148244 0.007425
v -0.782175 -0.148244 -0.007425
v -0.141987 -0.737391 0.006200
v -0.141987 -0.737391 -0.006200
v -0.141987 -0.749791 0.006200
v -0.141987 -0.749791 -0.006200
v -0.186326 -0.771841 0.006200
v -0.186326 -0.771841 -0.006200
v -0.154263 -0.771841 0.006200
v -0.154263 -0.771841 -0.006200
vn -0.0000 -1.0000 -0.0000
vn -0.0000 -0.0000 -1.0000
vn -0.0000 -0.0000 1.0000
vn 1.0000 -0.0000 -0.0000
vn -1.0000 -0.0000 -0.0000
vn -0.0000 1.0000 -0.0000
vn 0.1633 -0.0000 0.9866
vn -0.0000 -0.2252 -0.9743
vn -0.1732 -0.0000 0.9849
vn -0.0000 0.1389 -0.9903
vn -0.0487 0.0765 -0.9959
vn 0.0953 -0.0530 0.9940
vn -0.5368 0.8437 -0.0000
vn 0.5356 0.8445 -0.0000
vn -0.0000 0.1389 0.9903
vn -0.1732 -0.0000 -0.9849
vn -0.9315 -0.3636 -0.0000
vn -0.0487 0.0765 0.9959
vn 0.8737 -0.4864 -0.0000
vn -0.3116 -0.9502 -0.0000
vn 0.8531 0.5217 -0.0000
vn 0.0953 -0.0530 -0.9940
vn -0.0000 -0.2252 0.9743
vn 0.1633 -0.0000 -0.9866
vt 0.375000 0.000000
vt 0.625000 0.000000
vt 0.625000 0.250000
vt 0.375000 0.250000
vt 0.625000 0.500000
vt 0.375000 0.500000
vt 0.625000 0.750000
vt 0.375000 0.750000
vt 0.625000 1.000000
vt 0.375000 1.000000
vt 0.125000 0.500000
vt 0.125000 0.750000
vt 0.875000 0.500000
vt 0.875000 0.750000
s 0
usemtl stick.001
f 1/1/1 2/2/1 4/3/1 3/4/1
f 3/4/2 4/3/2 8/5/2 7/6/2
f 8/5/1 6/7/1 14/7/1 13/5/1
f 5/8/3 6/7/3 2/9/3 1/10/3
f 3/11/4 7/6/4 5/8/4 1/12/4
f 12/7/3 11/8/3 23/8/3 24/7/3
f 7/6/2 8/5/2 9/5/2 10/6/2
f 6/7/3 5/8/3 11/8/3 12/7/3
f 11/8/3 5/8/3 17/8/3 19/8/3
f 13/5/5 14/7/5 16/7/5 15/5/5
f 9/5/2 8/5/2 13/5/2 15/5/2
f 6/7/3 12/7/3 16/7/3 14/7/3
f 12/7/6 9/5/6 15/5/6 16/7/6
f 17/8/4 18/6/4 20/6/4 19/8/4
f 10/6/6 11/8/6 19/8/6 20/6/6
f 5/8/1 7/6/1 18/6/1 17/8/1
f 7/6/2 10/6/2 20/6/2 18/6/2
f 22/6/6 21/5/6 24/7/6 23/8/6
f 11/8/4 10/6/4 22/6/4 23/8/4
f 9/5/5 12/7/5 24/7/5 21/5/5
f 10/6/2 9/5/2 21/5/2 22/6/2
f 14/7/6 13/5/6 32/5/6 33/7/6
f 2/9/3 25/9/3 29/9/3 27/9/3
f 2/9/3 6/7/3 14/7/3 25/9/3
f 8/5/2 4/3/2 26/3/2 13/5/2
f 28/3/1 27/2/1 29/2/1 30/3/1
f 4/3/4 2/2/4 27/2/4 28/3/4
f 26/3/2 30/3/2 36/3/2 31/3/2
f 26/3/2 4/3/2 28/3/2 30/3/2
f 32/5/5 31/13/5 34/14/5 33/7/5
f 26/13/1 25/14/1 34/14/1 31/13/1
f 25/9/3 14/7/3 33/7/3 34/9/3
f 13/5/2 26/3/2 31/3/2 32/5/2
f 35/9/3 34/9/3 41/9/3 43/9/3
f 36/3/2 30/3/2 38/3/2 40/3/2
f 29/9/3 25/9/3 34/9/3 35/9/3
f 38/3/1 37/2/1 39/2/1 40/3/1
f 30/3/4 29/2/4 37/2/4 38/3/4
f 29/9/3 35/9/3 39/9/3 37/9/3
f 39/9/3 35/9/3 43/9/3 45/9/3
f 41/14/5 42/13/5 44/13/5 43/14/5
f 34/14/6 31/13/6 42/13/6 41/14/6
f 31/3/2 36/3/2 44/3/2 42/3/2
f 44/3/2 46/3/2 52/3/2 50/3/2
f 36/3/2 40/3/2 46/3/2 44/3/2
f 40/3/4 39/2/4 47/2/4 48/3/4
f 35/14/6 36/13/6 44/13/6 43/14/6
f 48/3/1 47/2/1 53/2/1 54/3/1
f 39/9/3 45/9/3 53/9/3 47/9/3
f 46/3/2 40/3/2 48/3/2 54/3/2
f 49/14/5 50/13/5 52/13/5 51/14/5
f 43/14/6 44/13/6 50/13/6 49/14/6
f 45/9/3 43/9/3 49/9/3 51/9/3
f 52/3/2 46/3/2 54/3/2 56/3/2
f 53/9/3 55/9/3 64/9/3 57/9/3
f 46/13/4 45/14/4 53/14/4 54/13/4
f 45/9/3 51/9/3 55/9/3 53/9/3
f 52/3/2 56/3/2 63/3/2 61/3/2
f 58/13/1 57/14/1 64/14/1 59/13/1
f 55/14/5 56/13/5 59/13/5 64/14/5
f 56/3/2 54/3/2 58/3/2 59/3/2
f 54/13/4 53/14/4 57/14/4 58/13/4
f 60/14/5 61/13/5 63/13/5 62/14/5
f 51/14/6 52/13/6 61/13/6 60/14/6
f 55/9/3 51/9/3 60/9/3 62/9/3
f 64/9/3 65/9/3 71/9/3 69/9/3
f 55/9/3 62/9/3 65/9/3 64/9/3
f 63/3/2 56/3/2 59/3/2 66/3/2
f 67/14/5 68/13/5 74/13/5 73/14/5
f 63/3/2 66/3/2 74/3/2 68/3/2
f 62/14/6 63/13/6 68/13/6 67/14/6
f 65/9/3 62/9/3 67/9/3 73/9/3
f 70/13/1 69/14/1 71/14/1 72/13/1
f 65/14/6 66/13/6 74/13/6 73/14/6
f 66/3/2 59/3/2 70/3/2 72/3/2
f 59/13/4 64/14/4 69/14/4 70/13/4
f 76/13/4 75/14/4 79/14/4 84/13/4
f 66/3/2 72/3/2 76/3/2 74/3/2
f 71/9/3 65/9/3 73/9/3 75/9/3
f 78/13/1 77/14/1 79/14/1 84/13/1
f 71/9/3 75/9/3 79/9/3 77/9/3
f 72/13/4 71/14/4 77/14/4 78/13/4
f 76/3/2 72/3/2 78/3/2 84/3/2
f 80/14/5 81/13/5 83/13/5 82/14/5
f 75/9/3 73/9/3 80/9/3 82/9/3
f 73/14/6 74/13/6 81/13/6 80/14/6
f 74/3/2 76/3/2 83/3/2 81/3/2
f 79/9/3 85/9/3 92/9/3 90/9/3
f 83/3/2 76/3/2 84/3/2 86/3/2
f 83/3/2 86/3/2 94/3/2 88/3/2
f 75/9/3 82/9/3 85/9/3 79/9/3
f 87/14/5 88/13/5 94/13/5 89/14/5
f 82/14/6 83/13/6 88/13/6 87/14/6
f 85/9/3 82/9/3 87/9/3 89/9/3
f 86/13/1 85/14/1 89/14/1 94/13/1
f 91/13/1 90/14/1 92/14/1 93/13/1
f 84/13/4 79/14/4 90/14/4 91/13/4
f 86/3/2 84/3/2 91/3/2 93/3/2
f 92/9/3 85/9/3 89/9/3 95/9/3
f 86/3/2 93/3/2 96/3/2 94/3/2
f 124/13/17 123/14/17 155/14/17 156/13/17
usemtl material.001
f 92/9/3 97/9/3 133/9/3 131/9/3
f 95/9/3 89/9/3 99/9/3 101/9/3
f 98/13/1 97/14/1 103/14/1 104/13/1
f 92/9/3 95/9/3 103/9/3 97/9/3
f 96/3/2 93/3/2 98/3/2 104/3/2
f 99/14/5 100/13/5 102/13/5 101/14/5
f 89/14/4 94/13/4 148/13/4 147/14/4
f 94/3/2 96/3/2 102/3/2 100/3/2
f 102/3/2 108/3/2 122/3/2 120/3/2
f 112/3/2 104/3/2 116/3/2 118/3/2
f 96/13/4 95/14/4 103/14/4 104/13/4
f 102/3/2 96/3/2 104/3/2 106/3/2
f 95/9/3 101/9/3 105/9/3 103/9/3
f 109/9/3 107/9/3 143/9/3 145/9/3
f 102/3/2 106/3/2 110/3/2 108/3/2
f 105/9/3 101/9/3 107/9/3 109/9/3
f 109/14/5 110/13/5 142/13/5 141/14/5
f 111/9/3 113/9/3 137/9/3 135/9/3
f 106/3/2 104/3/2 112/3/2 114/3/2
f 105/14/5 106/13/5 114/13/5 113/14/5
f 103/9/3 105/9/3 113/9/3 111/9/3
f 115/9/7 117/9/7 161/9/7 159/9/7
f 104/13/6 103/14/6 115/14/6 116/13/6
f 103/9/3 111/9/3 117/9/3 115/9/3
f 128/3/8 130/3/8 166/3/8 164/3/8
f 123/9/9 125/9/9 157/9/9 155/9/9
f 122/3/2 108/3/2 124/3/2 126/3/2
f 101/14/4 102/13/4 120/13/4 119/14/4
f 107/9/3 101/9/3 119/9/3 121/9/3
f 120/3/10 122/3/10 154/3/10 152/3/10
f 108/13/1 107/14/1 123/14/1 124/13/1
f 122/3/11 126/3/11 158/3/11 154/3/11
f 107/9/3 121/9/3 125/9/3 123/9/3
f 117/9/12 129/9/12 165/9/12 161/9/12
f 117/9/3 111/9/3 127/9/3 129/9/3
f 112/3/2 118/3/2 130/3/2 128/3/2
f 111/14/5 112/13/5 128/13/5 127/14/5
f 132/13/4 131/14/4 133/14/4 134/13/4
f 97/14/1 98/13/1 134/13/1 133/14/1
f 93/13/6 92/14/6 131/14/6 132/13/6
f 98/3/2 93/3/2 132/3/2 134/3/2
f 136/13/1 135/14/1 137/14/1 138/13/1
f 112/13/4 111/14/4 135/14/4 136/13/4
f 114/3/2 112/3/2 136/3/2 138/3/2
f 113/14/5 114/13/5 138/13/5 137/14/5
f 140/13/1 139/14/1 141/14/1 142/13/1
f 110/3/2 106/3/2 140/3/2 142/3/2
f 106/13/4 105/14/4 139/14/4 140/13/4
f 105/9/3 109/9/3 141/9/3 139/9/3
f 143/14/5 144/13/5 146/13/5 145/14/5
f 110/13/1 109/14/1 145/14/1 146/13/1
f 108/3/2 110/3/2 146/3/2 144/3/2
f 107/14/6 108/13/6 144/13/6 143/14/6
f 147/14/6 148/13/6 150/13/6 149/14/6
f 94/3/2 100/3/2 150/3/2 148/3/2
f 99/9/3 89/9/3 147/9/3 149/9/3
f 100/13/5 99/14/5 149/14/5 150/13/5
f 151/14/6 152/13/6 154/13/6 153/14/6
f 156/13/5 155/14/5 157/14/5 158/13/5
f 153/14/13 154/13/13 158/13/13 157/14/13
f 119/14/14 120/13/14 152/13/14 151/14/14
f 121/9/15 119/9/15 151/9/15 153/9/15
f 126/3/16 124/3/16 156/3/16 158/3/16
f 125/9/18 121/9/18 153/9/18 157/9/18
f 160/13/4 159/14/4 161/14/4 162/13/4
f 162/13/19 161/14/19 165/14/19 166/13/19
f 163/14/1 164/13/1 166/13/1 165/14/1
f 127/14/20 128/13/20 164/13/20 163/14/20
f 116/13/21 115/14/21 159/14/21 160/13/21
f 130/3/22 118/3/22 162/3/22 166/3/22
f 129/9/23 127/9/23 163/9/23 165/9/23
f 118/3/24 116/3/24 160/3/24 162/3/24
