{"accessors":[{"bufferView":0,"byteOffset":0,"componentType":5126,"count":24,"max":[0.125,0.0625,0.0625],"min":[-0.125,-0.1875,-0.1875],"normalized":false,"type":"VEC3"},{"bufferView":1,"byteOffset":0,"componentType":5126,"count":24,"max":[1,0.0000305817193293478,1,1],"min":[-1,-0.00003045622725,-1,-1],"normalized":false,"type":"VEC4"},{"bufferView":2,"byteOffset":0,"componentType":5126,"count":24,"max":[1,1,1],"min":[-1,-1,-1],"normalized":false,"type":"VEC3"},{"bufferView":3,"byteOffset":0,"componentType":5126,"count":24,"max":[0.406240940093994,0.359365224838257],"min":[0.0468604564666748,0.156237125396729],"normalized":false,"type":"VEC2"},{"bufferView":4,"byteOffset":0,"componentType":5123,"count":36,"max":[23],"min":[0],"normalized":false,"type":"SCALAR"},{"bufferView":5,"byteOffset":0,"componentType":5126,"count":24,"max":[0.0625,0.239276707172394,0.509802997112274],"min":[-0.0625,-0.01072330027819,0.197302997112274],"normalized":false,"type":"VEC3"},{"bufferView":6,"byteOffset":0,"componentType":5126,"count":24,"max":[1,0.0000305817193293478,1,1],"min":[-1,-0.00003045622725,-1,-1],"normalized":false,"type":"VEC4"},{"bufferView":7,"byteOffset":0,"componentType":5126,"count":24,"max":[1,1,1],"min":[-1,-1,-1],"normalized":false,"type":"VEC3"},{"bufferView":8,"byteOffset":0,"componentType":5126,"count":24,"max":[0.453116655349731,0.48436713218689],"min":[0.0468604564666748,0.187487602233887],"normalized":false,"type":"VEC2"},{"bufferView":9,"byteOffset":0,"componentType":5123,"count":36,"max":[23],"min":[0],"normalized":false,"type":"SCALAR"},{"bufferView":10,"byteOffset":0,"componentType":5126,"count":24,"max":[0.0625,0.239276707172394,0.759802997112274],"min":[-0.0625,0.0517766997218132,0.509802997112274],"normalized":false,"type":"VEC3"},{"bufferView":11,"byteOffset":0,"componentType":5126,"count":24,"max":[1,0.0000305817193293478,1,1],"min":[-1,-0.00003045622725,-1,-1],"normalized":false,"type":"VEC4"},{"bufferView":12,"byteOffset":0,"componentType":5126,"count":24,"max":[1,1,1],"min":[-1,-1,-1],"normalized":false,"type":"VEC3"},{"bufferView":13,"byteOffset":0,"componentType":5126,"count":24,"max":[0.48436713218689,0.48436713218689],"min":[0.156237125396729,0.109361410140991],"normalized":false,"type":"VEC2"},{"bufferView":14,"byteOffset":0,"componentType":5123,"count":36,"max":[23],"min":[0],"normalized":false,"type":"SCALAR"},{"bufferView":15,"byteOffset":0,"componentType":5126,"count":24,"max":[0.0953124985098839,0.0953120142221451,0.282811999320984],"min":[-0.09531249850988,-0.22031299769878,-0.28281301259995],"normalized":false,"type":"VEC3"},{"bufferView":16,"byteOffset":0,"componentType":5126,"count":24,"max":[1,0.0000305817193293478,1,1],"min":[-1,-0.00003045622725,-1,-1],"normalized":false,"type":"VEC4"},{"bufferView":17,"byteOffset":0,"componentType":5126,"count":24,"max":[1,1,1],"min":[-1,-1,-1],"normalized":false,"type":"VEC3"},{"bufferView":18,"byteOffset":0,"componentType":5126,"count":24,"max":[0.359365224838257,0.421866178512573],"min":[0,0],"normalized":false,"type":"VEC2"},{"bufferView":19,"byteOffset":0,"componentType":5123,"count":36,"max":[23],"min":[0],"normalized":false,"type":"SCALAR"},{"bufferView":20,"byteOffset":0,"componentType":5126,"count":24,"max":[0.0625,0.239276707172394,-0.50980299711227],"min":[-0.0625,0.0517766997218132,-0.69730299711227],"normalized":false,"type":"VEC3"},{"bufferView":21,"byteOffset":0,"componentType":5126,"count":24,"max":[1,0.0000305817193293478,1,1],"min":[-1,-0.00003045622725,-1,-1],"normalized":false,"type":"VEC4"},{"bufferView":22,"byteOffset":0,"componentType":5126,"count":24,"max":[1,1,1],"min":[-1,-1,-1],"normalized":false,"type":"VEC3"},{"bufferView":23,"byteOffset":0,"componentType":5126,"count":24,"max":[0.48436713218689,0.499992370605469],"min":[0.328114748001099,0],"normalized":false,"type":"VEC2"},{"bufferView":24,"byteOffset":0,"componentType":5123,"count":36,"max":[23],"min":[0],"normalized":false,"type":"SCALAR"},{"bufferView":25,"byteOffset":0,"componentType":5126,"count":24,"max":[0.0625,0.239276707172394,-0.19730299711227],"min":[-0.0625,-0.01072330027819,-0.50980299711227],"normalized":false,"type":"VEC3"},{"bufferView":26,"byteOffset":0,"componentType":5126,"count":24,"max":[1,0.0000305817193293478,1,1],"min":[-1,-0.00003045622725,-1,-1],"normalized":false,"type":"VEC4"},{"bufferView":27,"byteOffset":0,"componentType":5126,"count":24,"max":[1,1,1],"min":[-1,-1,-1],"normalized":false,"type":"VEC3"},{"bufferView":28,"byteOffset":0,"componentType":5126,"count":24,"max":[0.453116655349731,0.499992370605469],"min":[0,0.156237125396729],"normalized":false,"type":"VEC2"},{"bufferView":29,"byteOffset":0,"componentType":5123,"count":36,"max":[23],"min":[0],"normalized":false,"type":"SCALAR"},{"bufferView":30,"byteOffset":0,"componentType":5126,"count":24,"max":[0.15625,0,0],"min":[-0.15625,-0.125,-0.125],"normalized":false,"type":"VEC3"},{"bufferView":31,"byteOffset":0,"componentType":5126,"count":24,"max":[1,0.0000305817193293478,1,1],"min":[-1,-0.00003045622725,-1,-1],"normalized":false,"type":"VEC4"},{"bufferView":32,"byteOffset":0,"componentType":5126,"count":24,"max":[1,1,1],"min":[-1,-1,-1],"normalized":false,"type":"VEC3"},{"bufferView":33,"byteOffset":0,"componentType":5126,"count":24,"max":[0.515617609024048,0.515617609024048],"min":[0.0937361717224121,0.0468604564666748],"normalized":false,"type":"VEC2"},{"bufferView":34,"byteOffset":0,"componentType":5123,"count":36,"max":[23],"min":[0],"normalized":false,"type":"SCALAR"},{"bufferView":35,"byteOffset":0,"componentType":5126,"count":24,"max":[0.0625,0.239276707172394,-0.69730299711227],"min":[-0.0625,0.0517766997218132,-0.82230299711227],"normalized":false,"type":"VEC3"},{"bufferView":36,"byteOffset":0,"componentType":5126,"count":24,"max":[1,0.0000305817193293478,1,1],"min":[-1,-0.00003045622725,-1,-1],"normalized":false,"type":"VEC4"},{"bufferView":37,"byteOffset":0,"componentType":5126,"count":24,"max":[1,1,1],"min":[-1,-1,-1],"normalized":false,"type":"VEC3"},{"bufferView":38,"byteOffset":0,"componentType":5126,"count":24,"max":[0.515617609024048,0.515617609024048],"min":[0.12498664855957,0.12498664855957],"normalized":false,"type":"VEC2"},{"bufferView":39,"byteOffset":0,"componentType":5123,"count":36,"max":[23],"min":[0],"normalized":false,"type":"SCALAR"},{"bufferView":40,"byteOffset":0,"componentType":5126,"count":24,"max":[0.0625,0.239276707172394,0.884802997112274],"min":[-0.0625,0.0517766997218132,0.759802997112274],"normalized":false,"type":"VEC3"},{"bufferView":41,"byteOffset":0,"componentType":5126,"count":24,"max":[1,0.0000305817193293478,1,1],"min":[-1,-0.00003045622725,-1,-1],"normalized":false,"type":"VEC4"},{"bufferView":42,"byteOffset":0,"componentType":5126,"count":24,"max":[1,1,1],"min":[-1,-1,-1],"normalized":false,"type":"VEC3"},{"bufferView":43,"byteOffset":0,"componentType":5126,"count":24,"max":[0.515617609024048,0.531242847442627],"min":[0.0312352180480957,0],"normalized":false,"type":"VEC2"},{"bufferView":44,"byteOffset":0,"componentType":5123,"count":36,"max":[23],"min":[0],"normalized":false,"type":"SCALAR"},{"bufferView":45,"byteOffset":0,"componentType":5126,"count":24,"max":[0.5625,1.1875,0.59375],"min":[0.4375,1.125,0.40625],"normalized":false,"type":"VEC3"},{"bufferView":46,"byteOffset":0,"componentType":5126,"count":24,"max":[1,0.0000305817193293478,1,1],"min":[-1,-0.00003045622725,-1,-1],"normalized":false,"type":"VEC4"},{"bufferView":47,"byteOffset":0,"componentType":5126,"count":24,"max":[1,1,1],"min":[-1,-1,-1],"normalized":false,"type":"VEC3"},{"bufferView":48,"byteOffset":0,"componentType":5126,"count":24,"max":[0.531242847442627,0.531242847442627],"min":[0.0624856948852539,0.0468604564666748],"normalized":false,"type":"VEC2"},{"bufferView":49,"byteOffset":0,"componentType":5123,"count":36,"max":[23],"min":[0],"normalized":false,"type":"SCALAR"},{"bufferView":50,"byteOffset":0,"componentType":5126,"count":24,"max":[0.59375,0.75,0.625],"min":[0.40625,-0.1875,0.375],"normalized":false,"type":"VEC3"},{"bufferView":51,"byteOffset":0,"componentType":5126,"count":24,"max":[1,0.0000305817193293478,1,1],"min":[-1,-0.00003045622725,-1,-1],"normalized":false,"type":"VEC4"},{"bufferView":52,"byteOffset":0,"componentType":5126,"count":24,"max":[1,1,1],"min":[-1,-1,-1],"normalized":false,"type":"VEC3"},{"bufferView":53,"byteOffset":0,"componentType":5126,"count":24,"max":[0.390615701675415,0.406240940093994],"min":[0,0],"normalized":false,"type":"VEC2"},{"bufferView":54,"byteOffset":0,"componentType":5123,"count":36,"max":[23],"min":[0],"normalized":false,"type":"SCALAR"},{"bufferView":55,"byteOffset":0,"componentType":5126,"count":24,"max":[0.59375,-0.25,0.625],"min":[0.40625,-0.4375,0.375],"normalized":false,"type":"VEC3"},{"bufferView":56,"byteOffset":0,"componentType":5126,"count":24,"max":[1,0.0000305817193293478,1,1],"min":[-1,-0.00003045622725,-1,-1],"normalized":false,"type":"VEC4"},{"bufferView":57,"byteOffset":0,"componentType":5126,"count":24,"max":[1,1,1],"min":[-1,-1,-1],"normalized":false,"type":"VEC3"},{"bufferView":58,"byteOffset":0,"componentType":5126,"count":24,"max":[0.421866178512573,0.453116655349731],"min":[0.0468604564666748,0],"normalized":false,"type":"VEC2"},{"bufferView":59,"byteOffset":0,"componentType":5123,"count":36,"max":[23],"min":[0],"normalized":false,"type":"SCALAR"},{"bufferView":60,"byteOffset":0,"componentType":5126,"count":24,"max":[0.5625,-0.1875,0.59375],"min":[0.4375,-0.25,0.40625],"normalized":false,"type":"VEC3"},{"bufferView":61,"byteOffset":0,"componentType":5126,"count":24,"max":[1,0.0000305817193293478,1,1],"min":[-1,-0.00003045622725,-1,-1],"normalized":false,"type":"VEC4"},{"bufferView":62,"byteOffset":0,"componentType":5126,"count":24,"max":[1,1,1],"min":[-1,-1,-1],"normalized":false,"type":"VEC3"},{"bufferView":63,"byteOffset":0,"componentType":5126,"count":24,"max":[0.531242847442627,0.343739986419678],"min":[0.234363317489624,0.109361410140991],"normalized":false,"type":"VEC2"},{"bufferView":64,"byteOffset":0,"componentType":5123,"count":36,"max":[23],"min":[0],"normalized":false,"type":"SCALAR"},{"bufferView":65,"byteOffset":0,"componentType":5126,"count":24,"max":[0.5625,0.859375,0.59375],"min":[0.4375,0.609375,0.40625],"normalized":false,"type":"VEC3"},{"bufferView":66,"byteOffset":0,"componentType":5126,"count":24,"max":[1,0.0000305817193293478,1,1],"min":[-1,-0.00003045622725,-1,-1],"normalized":false,"type":"VEC4"},{"bufferView":67,"byteOffset":0,"componentType":5126,"count":24,"max":[1,1,1],"min":[-1,-1,-1],"normalized":false,"type":"VEC3"},{"bufferView":68,"byteOffset":0,"componentType":5126,"count":24,"max":[0.48436713218689,0.499992370605469],"min":[0,0.187487602233887],"normalized":false,"type":"VEC2"},{"bufferView":69,"byteOffset":0,"componentType":5123,"count":36,"max":[23],"min":[0],"normalized":false,"type":"SCALAR"}],"asset":{"generator":"Godot Engine v4.3.stable.official@77dcf97d82cbfe4e4615475fa52ca03da645dbd8","version":"2.0"},"bufferViews":[{"buffer":0,"byteLength":288,"byteOffset":0,"byteStride":12,"target":34962},{"buffer":0,"byteLength":384,"byteOffset":288,"byteStride":16,"target":34962},{"buffer":0,"byteLength":288,"byteOffset":672,"byteStride":12,"target":34962},{"buffer":0,"byteLength":192,"byteOffset":960,"byteStride":8,"target":34962},{"buffer":0,"byteLength":72,"byteOffset":1152,"target":34963},{"buffer":0,"byteLength":288,"byteOffset":1224,"byteStride":12,"target":34962},{"buffer":0,"byteLength":384,"byteOffset":1512,"byteStride":16,"target":34962},{"buffer":0,"byteLength":288,"byteOffset":1896,"byteStride":12,"target":34962},{"buffer":0,"byteLength":192,"byteOffset":2184,"byteStride":8,"target":34962},{"buffer":0,"byteLength":72,"byteOffset":2376,"target":34963},{"buffer":0,"byteLength":288,"byteOffset":2448,"byteStride":12,"target":34962},{"buffer":0,"byteLength":384,"byteOffset":2736,"byteStride":16,"target":34962},{"buffer":0,"byteLength":288,"byteOffset":3120,"byteStride":12,"target":34962},{"buffer":0,"byteLength":192,"byteOffset":3408,"byteStride":8,"target":34962},{"buffer":0,"byteLength":72,"byteOffset":3600,"target":34963},{"buffer":0,"byteLength":288,"byteOffset":3672,"byteStride":12,"target":34962},{"buffer":0,"byteLength":384,"byteOffset":3960,"byteStride":16,"target":34962},{"buffer":0,"byteLength":288,"byteOffset":4344,"byteStride":12,"target":34962},{"buffer":0,"byteLength":192,"byteOffset":4632,"byteStride":8,"target":34962},{"buffer":0,"byteLength":72,"byteOffset":4824,"target":34963},{"buffer":0,"byteLength":288,"byteOffset":4896,"byteStride":12,"target":34962},{"buffer":0,"byteLength":384,"byteOffset":5184,"byteStride":16,"target":34962},{"buffer":0,"byteLength":288,"byteOffset":5568,"byteStride":12,"target":34962},{"buffer":0,"byteLength":192,"byteOffset":5856,"byteStride":8,"target":34962},{"buffer":0,"byteLength":72,"byteOffset":6048,"target":34963},{"buffer":0,"byteLength":288,"byteOffset":6120,"byteStride":12,"target":34962},{"buffer":0,"byteLength":384,"byteOffset":6408,"byteStride":16,"target":34962},{"buffer":0,"byteLength":288,"byteOffset":6792,"byteStride":12,"target":34962},{"buffer":0,"byteLength":192,"byteOffset":7080,"byteStride":8,"target":34962},{"buffer":0,"byteLength":72,"byteOffset":7272,"target":34963},{"buffer":0,"byteLength":288,"byteOffset":7344,"byteStride":12,"target":34962},{"buffer":0,"byteLength":384,"byteOffset":7632,"byteStride":16,"target":34962},{"buffer":0,"byteLength":288,"byteOffset":8016,"byteStride":12,"target":34962},{"buffer":0,"byteLength":192,"byteOffset":8304,"byteStride":8,"target":34962},{"buffer":0,"byteLength":72,"byteOffset":8496,"target":34963},{"buffer":0,"byteLength":288,"byteOffset":8568,"byteStride":12,"target":34962},{"buffer":0,"byteLength":384,"byteOffset":8856,"byteStride":16,"target":34962},{"buffer":0,"byteLength":288,"byteOffset":9240,"byteStride":12,"target":34962},{"buffer":0,"byteLength":192,"byteOffset":9528,"byteStride":8,"target":34962},{"buffer":0,"byteLength":72,"byteOffset":9720,"target":34963},{"buffer":0,"byteLength":288,"byteOffset":9792,"byteStride":12,"target":34962},{"buffer":0,"byteLength":384,"byteOffset":10080,"byteStride":16,"target":34962},{"buffer":0,"byteLength":288,"byteOffset":10464,"byteStride":12,"target":34962},{"buffer":0,"byteLength":192,"byteOffset":10752,"byteStride":8,"target":34962},{"buffer":0,"byteLength":72,"byteOffset":10944,"target":34963},{"buffer":0,"byteLength":288,"byteOffset":11016,"byteStride":12,"target":34962},{"buffer":0,"byteLength":384,"byteOffset":11304,"byteStride":16,"target":34962},{"buffer":0,"byteLength":288,"byteOffset":11688,"byteStride":12,"target":34962},{"buffer":0,"byteLength":192,"byteOffset":11976,"byteStride":8,"target":34962},{"buffer":0,"byteLength":72,"byteOffset":12168,"target":34963},{"buffer":0,"byteLength":288,"byteOffset":12240,"byteStride":12,"target":34962},{"buffer":0,"byteLength":384,"byteOffset":12528,"byteStride":16,"target":34962},{"buffer":0,"byteLength":288,"byteOffset":12912,"byteStride":12,"target":34962},{"buffer":0,"byteLength":192,"byteOffset":13200,"byteStride":8,"target":34962},{"buffer":0,"byteLength":72,"byteOffset":13392,"target":34963},{"buffer":0,"byteLength":288,"byteOffset":13464,"byteStride":12,"target":34962},{"buffer":0,"byteLength":384,"byteOffset":13752,"byteStride":16,"target":34962},{"buffer":0,"byteLength":288,"byteOffset":14136,"byteStride":12,"target":34962},{"buffer":0,"byteLength":192,"byteOffset":14424,"byteStride":8,"target":34962},{"buffer":0,"byteLength":72,"byteOffset":14616,"target":34963},{"buffer":0,"byteLength":288,"byteOffset":14688,"byteStride":12,"target":34962},{"buffer":0,"byteLength":384,"byteOffset":14976,"byteStride":16,"target":34962},{"buffer":0,"byteLength":288,"byteOffset":15360,"byteStride":12,"target":34962},{"buffer":0,"byteLength":192,"byteOffset":15648,"byteStride":8,"target":34962},{"buffer":0,"byteLength":72,"byteOffset":15840,"target":34963},{"buffer":0,"byteLength":288,"byteOffset":15912,"byteStride":12,"target":34962},{"buffer":0,"byteLength":384,"byteOffset":16200,"byteStride":16,"target":34962},{"buffer":0,"byteLength":288,"byteOffset":16584,"byteStride":12,"target":34962},{"buffer":0,"byteLength":192,"byteOffset":16872,"byteStride":8,"target":34962},{"buffer":0,"byteLength":72,"byteOffset":17064,"target":34963}],"buffers":[{"byteLength":17136,"uri":"pickaxe_wood0.bin"}],"extensionsUsed":["GODOT_single_root"],"images":[{"uri":"textures%2Fmaterial_1_albedo.png"},{"uri":"textures%2Fmaterial_1_albedo2.png"}],"materials":[{"extensions":{},"pbrMetallicRoughness":{"baseColorFactor":[0.22322803735733,0.102241612970829,0.0466652028262615,1],"baseColorTexture":{"index":0},"metallicFactor":0,"roughnessFactor":1}},{"alphaCutoff":0.0500000007450581,"alphaMode":"MASK","doubleSided":true,"extensions":{},"name":"material_1","pbrMetallicRoughness":{"baseColorFactor":[0.99999988079071,0.99999988079071,0.99999988079071,1],"baseColorTexture":{"index":1},"metallicFactor":0,"roughnessFactor":1}}],"meshes":[{"extras":{"targetNames":[]},"primitives":[{"attributes":{"NORMAL":2,"POSITION":0,"TANGENT":1,"TEXCOORD_0":3},"indices":4,"material":0,"mode":4}]},{"extras":{"targetNames":[]},"primitives":[{"attributes":{"NORMAL":7,"POSITION":5,"TANGENT":6,"TEXCOORD_0":8},"indices":9,"material":0,"mode":4}]},{"extras":{"targetNames":[]},"primitives":[{"attributes":{"NORMAL":12,"POSITION":10,"TANGENT":11,"TEXCOORD_0":13},"indices":14,"material":0,"mode":4}]},{"extras":{"targetNames":[]},"primitives":[{"attributes":{"NORMAL":17,"POSITION":15,"TANGENT":16,"TEXCOORD_0":18},"indices":19,"material":0,"mode":4}]},{"extras":{"targetNames":[]},"primitives":[{"attributes":{"NORMAL":22,"POSITION":20,"TANGENT":21,"TEXCOORD_0":23},"indices":24,"material":0,"mode":4}]},{"extras":{"targetNames":[]},"primitives":[{"attributes":{"NORMAL":27,"POSITION":25,"TANGENT":26,"TEXCOORD_0":28},"indices":29,"material":0,"mode":4}]},{"extras":{"targetNames":[]},"primitives":[{"attributes":{"NORMAL":32,"POSITION":30,"TANGENT":31,"TEXCOORD_0":33},"indices":34,"material":0,"mode":4}]},{"extras":{"targetNames":[]},"primitives":[{"attributes":{"NORMAL":37,"POSITION":35,"TANGENT":36,"TEXCOORD_0":38},"indices":39,"material":0,"mode":4}]},{"extras":{"targetNames":[]},"primitives":[{"attributes":{"NORMAL":42,"POSITION":40,"TANGENT":41,"TEXCOORD_0":43},"indices":44,"material":0,"mode":4}]},{"extras":{"targetNames":[]},"primitives":[{"attributes":{"NORMAL":47,"POSITION":45,"TANGENT":46,"TEXCOORD_0":48},"indices":49,"material":0,"mode":4}]},{"extras":{"targetNames":[]},"primitives":[{"attributes":{"NORMAL":52,"POSITION":50,"TANGENT":51,"TEXCOORD_0":53},"indices":54,"material":1,"mode":4}]},{"extras":{"targetNames":[]},"primitives":[{"attributes":{"NORMAL":57,"POSITION":55,"TANGENT":56,"TEXCOORD_0":58},"indices":59,"material":1,"mode":4}]},{"extras":{"targetNames":[]},"primitives":[{"attributes":{"NORMAL":62,"POSITION":60,"TANGENT":61,"TEXCOORD_0":63},"indices":64,"material":1,"mode":4}]},{"extras":{"targetNames":[]},"primitives":[{"attributes":{"NORMAL":67,"POSITION":65,"TANGENT":66,"TEXCOORD_0":68},"indices":69,"material":1,"mode":4}]}],"nodes":[{"children":[1],"name":"pickaxe_29"},{"children":[2,3,4,5,6,7,8,9,10,11,12,13,14,15],"name":"Node3D","rotation":[0.610823631286621,0.356222450733185,0.610823690891266,-0.35622248053551],"scale":[0.325300008058548,0.325300067663193,0.325300067663193],"translation":[0.236395999789238,-0.14401100575924,0]},{"mesh":0,"name":"Object_30","rotation":[-0.38268345594406,0,0,0.923879563808441],"translation":[0,0.71875,0]},{"mesh":1,"name":"Object_32","rotation":[0.195090055465698,0,0,0.980785310268402],"translation":[0,0.625,0]},{"mesh":2,"name":"Object_34","rotation":[0.195090055465698,0,0,0.980785310268402],"translation":[0,0.625,0]},{"mesh":3,"name":"Object_36","translation":[0,0.6875,0]},{"mesh":4,"name":"Object_38","rotation":[-0.1950900554657,0,0,0.980785310268402],"translation":[0,0.625,0]},{"mesh":5,"name":"Object_40","rotation":[-0.1950900554657,0,0,0.980785310268402],"translation":[0,0.625,0]},{"mesh":6,"name":"Object_42","rotation":[-0.38268345594406,0,0,0.923879563808441],"translation":[0,0.71875,0]},{"mesh":7,"name":"Object_44","rotation":[-0.1950900554657,0,0,0.980785310268402],"translation":[0,0.625,0]},{"mesh":8,"name":"Object_46","rotation":[0.195090055465698,0,0,0.980785310268402],"translation":[0,0.625,0]},{"mesh":9,"name":"Object_48","translation":[-0.5,-0.375,-0.5]},{"mesh":10,"name":"Object_51","translation":[-0.5,-0.5,-0.5]},{"mesh":11,"name":"Object_53","translation":[-0.5,-0.5,-0.5]},{"mesh":12,"name":"Object_55","translation":[-0.5,-0.5,-0.5]},{"mesh":13,"name":"Object_57","translation":[-0.5,-0.375,-0.5]}],"samplers":[{"magFilter":9728,"minFilter":9728,"wrapS":10497,"wrapT":10497}],"scene":0,"scenes":[{"nodes":[0]}],"textures":[{"sampler":0,"source":0},{"sampler":0,"source":1}]}