{"accessors":[{"bufferView":0,"byteOffset":0,"componentType":5126,"count":24,"max":[0.15625,0.5,0.25],"min":[0.03125,0,-0.125],"normalized":false,"type":"VEC3"},{"bufferView":1,"byteOffset":0,"componentType":5126,"count":24,"max":[1,0.0000305817193293478,1,1],"min":[-1,-0.00003045622725,-1,-1],"normalized":false,"type":"VEC4"},{"bufferView":2,"byteOffset":0,"componentType":5126,"count":24,"max":[1,1,1],"min":[-1,-1,-1],"normalized":false,"type":"VEC3"},{"bufferView":3,"byteOffset":0,"componentType":5126,"count":24,"max":[0.406240940093994,0.499992370605469],"min":[0,0],"normalized":false,"type":"VEC2"},{"bufferView":4,"byteOffset":0,"componentType":5123,"count":36,"max":[23],"min":[0],"normalized":false,"type":"SCALAR"},{"bufferView":5,"byteOffset":0,"componentType":5126,"count":24,"max":[0,0.1875,0.125],"min":[-0.125,0,-0.125],"normalized":false,"type":"VEC3"},{"bufferView":6,"byteOffset":0,"componentType":5126,"count":24,"max":[1,0.0000305817193293478,1,1],"min":[-1,-0.00003045622725,-1,-1],"normalized":false,"type":"VEC4"},{"bufferView":7,"byteOffset":0,"componentType":5126,"count":24,"max":[1,1,1],"min":[-1,-1,-1],"normalized":false,"type":"VEC3"},{"bufferView":8,"byteOffset":0,"componentType":5126,"count":24,"max":[0.468741893768311,0.499992370605469],"min":[0.0312352180480957,0.203112840652466],"normalized":false,"type":"VEC2"},{"bufferView":9,"byteOffset":0,"componentType":5123,"count":36,"max":[23],"min":[0],"normalized":false,"type":"SCALAR"},{"bufferView":10,"byteOffset":0,"componentType":5126,"count":24,"max":[0.00156199932098389,0.00156301259994507,0.126562491059303],"min":[-0.12656299769878,-0.50156199932098,-0.00156250002328],"normalized":false,"type":"VEC3"},{"bufferView":11,"byteOffset":0,"componentType":5126,"count":24,"max":[1,0.0000305817193293478,1,1],"min":[-1,-0.00003045622725,-1,-1],"normalized":false,"type":"VEC4"},{"bufferView":12,"byteOffset":0,"componentType":5126,"count":24,"max":[1,1,1],"min":[-1,-1,-1],"normalized":false,"type":"VEC3"},{"bufferView":13,"byteOffset":0,"componentType":5126,"count":24,"max":[0.531242847442627,0.531242847442627],"min":[0.0624856948852539,0],"normalized":false,"type":"VEC2"},{"bufferView":14,"byteOffset":0,"componentType":5123,"count":36,"max":[23],"min":[0],"normalized":false,"type":"SCALAR"},{"bufferView":15,"byteOffset":0,"componentType":5126,"count":24,"max":[0.0493979007005692,0.189062491059303,0.242046996951103],"min":[-0.0787270963192,-0.00156250002328,0.113921999931335],"normalized":false,"type":"VEC3"},{"bufferView":16,"byteOffset":0,"componentType":5126,"count":24,"max":[1,0.0000305817193293478,1,1],"min":[-1,-0.00003045622725,-1,-1],"normalized":false,"type":"VEC4"},{"bufferView":17,"byteOffset":0,"componentType":5126,"count":24,"max":[1,1,1],"min":[-1,-1,-1],"normalized":false,"type":"VEC3"},{"bufferView":18,"byteOffset":0,"componentType":5126,"count":24,"max":[0.531242847442627,0.531242847442627],"min":[0.0937361717224121,0.109361410140991],"normalized":false,"type":"VEC2"},{"bufferView":19,"byteOffset":0,"componentType":5123,"count":36,"max":[23],"min":[0],"normalized":false,"type":"SCALAR"},{"bufferView":20,"byteOffset":0,"componentType":5126,"count":24,"max":[0.0405030995607376,0.29822701215744,0.125],"min":[-0.08449690043926,0.173226997256279,-0.125],"normalized":false,"type":"VEC3"},{"bufferView":21,"byteOffset":0,"componentType":5126,"count":24,"max":[1,0.0000305817193293478,1,1],"min":[-1,-0.00003045622725,-1,-1],"normalized":false,"type":"VEC4"},{"bufferView":22,"byteOffset":0,"componentType":5126,"count":24,"max":[1,1,1],"min":[-1,-1,-1],"normalized":false,"type":"VEC3"},{"bufferView":23,"byteOffset":0,"componentType":5126,"count":24,"max":[0.531242847442627,0.531242847442627],"min":[0.12498664855957,0.140611886978149],"normalized":false,"type":"VEC2"},{"bufferView":24,"byteOffset":0,"componentType":5123,"count":36,"max":[23],"min":[0],"normalized":false,"type":"SCALAR"},{"bufferView":25,"byteOffset":0,"componentType":5126,"count":24,"max":[0.0493979007005692,0.189062491059303,-0.11392199993134],"min":[-0.0787270963192,-0.00156250002328,-0.2420469969511],"normalized":false,"type":"VEC3"},{"bufferView":26,"byteOffset":0,"componentType":5126,"count":24,"max":[1,0.0000305817193293478,1,1],"min":[-1,-0.00003045622725,-1,-1],"normalized":false,"type":"VEC4"},{"bufferView":27,"byteOffset":0,"componentType":5126,"count":24,"max":[1,1,1],"min":[-1,-1,-1],"normalized":false,"type":"VEC3"},{"bufferView":28,"byteOffset":0,"componentType":5126,"count":24,"max":[0.531242847442627,0.531242847442627],"min":[0.156237125396729,0],"normalized":false,"type":"VEC2"},{"bufferView":29,"byteOffset":0,"componentType":5123,"count":36,"max":[23],"min":[0],"normalized":false,"type":"SCALAR"},{"bufferView":30,"byteOffset":0,"componentType":5126,"count":24,"max":[0.00156199932098389,0.251561999320984,0.00156199932098389],"min":[-0.12656299769878,-0.25156301259995,-0.12656299769878],"normalized":false,"type":"VEC3"},{"bufferView":31,"byteOffset":0,"componentType":5126,"count":24,"max":[1,0.0000305817193293478,1,1],"min":[-1,-0.00003045622725,-1,-1],"normalized":false,"type":"VEC4"},{"bufferView":32,"byteOffset":0,"componentType":5126,"count":24,"max":[1,1,1],"min":[-1,-1,-1],"normalized":false,"type":"VEC3"},{"bufferView":33,"byteOffset":0,"componentType":5126,"count":24,"max":[0.531242847442627,0.531242847442627],"min":[0.187487602233887,0],"normalized":false,"type":"VEC2"},{"bufferView":34,"byteOffset":0,"componentType":5123,"count":36,"max":[23],"min":[0],"normalized":false,"type":"SCALAR"},{"bufferView":35,"byteOffset":0,"componentType":5126,"count":24,"max":[0.154687494039536,0.498437494039536,0.248436987400055],"min":[0.0953124985098839,0.00156250002328306,-0.12343800067902],"normalized":false,"type":"VEC3"},{"bufferView":36,"byteOffset":0,"componentType":5126,"count":24,"max":[1,0.0000305817193293478,1,1],"min":[-1,-0.00003045622725,-1,-1],"normalized":false,"type":"VEC4"},{"bufferView":37,"byteOffset":0,"componentType":5126,"count":24,"max":[1,1,1],"min":[-1,-1,-1],"normalized":false,"type":"VEC3"},{"bufferView":38,"byteOffset":0,"componentType":5126,"count":24,"max":[0.499992370605469,0.578118562698364],"min":[0,0.0468604564666748],"normalized":false,"type":"VEC2"},{"bufferView":39,"byteOffset":0,"componentType":5123,"count":36,"max":[23],"min":[0],"normalized":false,"type":"SCALAR"},{"bufferView":40,"byteOffset":0,"componentType":5126,"count":24,"max":[0,0.1875,0.125],"min":[-0.125,0,-0.125],"normalized":false,"type":"VEC3"},{"bufferView":41,"byteOffset":0,"componentType":5126,"count":24,"max":[1,0.0000305817193293478,1,1],"min":[-1,-0.00003045622725,-1,-1],"normalized":false,"type":"VEC4"},{"bufferView":42,"byteOffset":0,"componentType":5126,"count":24,"max":[1,1,1],"min":[-1,-1,-1],"normalized":false,"type":"VEC3"},{"bufferView":43,"byteOffset":0,"componentType":5126,"count":24,"max":[0.515617609024048,0.546868085861206],"min":[0,0],"normalized":false,"type":"VEC2"},{"bufferView":44,"byteOffset":0,"componentType":5123,"count":36,"max":[23],"min":[0],"normalized":false,"type":"SCALAR"},{"bufferView":45,"byteOffset":0,"componentType":5126,"count":24,"max":[0.125,-0.75,0.09375],"min":[0,-0.8125,-0.09375],"normalized":false,"type":"VEC3"},{"bufferView":46,"byteOffset":0,"componentType":5126,"count":24,"max":[1,0.0000305817193293478,1,1],"min":[-1,-0.00003045622725,-1,-1],"normalized":false,"type":"VEC4"},{"bufferView":47,"byteOffset":0,"componentType":5126,"count":24,"max":[1,1,1],"min":[-1,-1,-1],"normalized":false,"type":"VEC3"},{"bufferView":48,"byteOffset":0,"componentType":5126,"count":24,"max":[0.546868085861206,0.515617609024048],"min":[0.0624856948852539,0.0624856948852539],"normalized":false,"type":"VEC2"},{"bufferView":49,"byteOffset":0,"componentType":5123,"count":36,"max":[23],"min":[0],"normalized":false,"type":"SCALAR"},{"bufferView":50,"byteOffset":0,"componentType":5126,"count":24,"max":[0.15625,0.375,0.125],"min":[-0.03125,-0.75,-0.125],"normalized":false,"type":"VEC3"},{"bufferView":51,"byteOffset":0,"componentType":5126,"count":24,"max":[1,0.0000305817193293478,1,1],"min":[-1,-0.00003045622725,-1,-1],"normalized":false,"type":"VEC4"},{"bufferView":52,"byteOffset":0,"componentType":5126,"count":24,"max":[1,1,1],"min":[-1,-1,-1],"normalized":false,"type":"VEC3"},{"bufferView":53,"byteOffset":0,"componentType":5126,"count":24,"max":[0.421866178512573,0.437491416931152],"min":[0,0],"normalized":false,"type":"VEC2"},{"bufferView":54,"byteOffset":0,"componentType":5123,"count":36,"max":[23],"min":[0],"normalized":false,"type":"SCALAR"},{"bufferView":55,"byteOffset":0,"componentType":5126,"count":24,"max":[0.15625,-0.8125,0.125],"min":[-0.03125,-1,-0.125],"normalized":false,"type":"VEC3"},{"bufferView":56,"byteOffset":0,"componentType":5126,"count":24,"max":[1,0.0000305817193293478,1,1],"min":[-1,-0.00003045622725,-1,-1],"normalized":false,"type":"VEC4"},{"bufferView":57,"byteOffset":0,"componentType":5126,"count":24,"max":[1,1,1],"min":[-1,-1,-1],"normalized":false,"type":"VEC3"},{"bufferView":58,"byteOffset":0,"componentType":5126,"count":24,"max":[0.468741893768311,0.437491416931152],"min":[0.265613794326782,0.156237125396729],"normalized":false,"type":"VEC2"},{"bufferView":59,"byteOffset":0,"componentType":5123,"count":36,"max":[23],"min":[0],"normalized":false,"type":"SCALAR"},{"bufferView":60,"byteOffset":0,"componentType":5126,"count":24,"max":[0.125,0.6875,0.09375],"min":[0,0.375,-0.09375],"normalized":false,"type":"VEC3"},{"bufferView":61,"byteOffset":0,"componentType":5126,"count":24,"max":[1,0.0000305817193293478,1,1],"min":[-1,-0.00003045622725,-1,-1],"normalized":false,"type":"VEC4"},{"bufferView":62,"byteOffset":0,"componentType":5126,"count":24,"max":[1,1,1],"min":[-1,-1,-1],"normalized":false,"type":"VEC3"},{"bufferView":63,"byteOffset":0,"componentType":5126,"count":24,"max":[0.48436713218689,0.499992370605469],"min":[0.0937361717224121,0],"normalized":false,"type":"VEC2"},{"bufferView":64,"byteOffset":0,"componentType":5123,"count":36,"max":[23],"min":[0],"normalized":false,"type":"SCALAR"},{"bufferView":65,"byteOffset":0,"componentType":5126,"count":24,"max":[0.125,0.25,0.0625],"min":[0,-0.0625,-0.0625],"normalized":false,"type":"VEC3"},{"bufferView":66,"byteOffset":0,"componentType":5126,"count":24,"max":[1,0.0000305817193293478,1,1],"min":[-1,-0.00003045622725,-1,-1],"normalized":false,"type":"VEC4"},{"bufferView":67,"byteOffset":0,"componentType":5126,"count":24,"max":[1,1,1],"min":[-1,-1,-1],"normalized":false,"type":"VEC3"},{"bufferView":68,"byteOffset":0,"componentType":5126,"count":24,"max":[0.531242847442627,0.499992370605469],"min":[0.265613794326782,0.0468604564666748],"normalized":false,"type":"VEC2"},{"bufferView":69,"byteOffset":0,"componentType":5123,"count":36,"max":[23],"min":[0],"normalized":false,"type":"SCALAR"},{"bufferView":70,"byteOffset":0,"componentType":5126,"count":24,"max":[0.15625,0.625,0.03125],"min":[-0.03125,0.4375,-0.03125],"normalized":false,"type":"VEC3"},{"bufferView":71,"byteOffset":0,"componentType":5126,"count":24,"max":[1,0.0000305817193293478,1,1],"min":[-1,-0.00003045622725,-1,-1],"normalized":false,"type":"VEC4"},{"bufferView":72,"byteOffset":0,"componentType":5126,"count":24,"max":[1,1,1],"min":[-1,-1,-1],"normalized":false,"type":"VEC3"},{"bufferView":73,"byteOffset":0,"componentType":5126,"count":24,"max":[0.531242847442627,0.546868085861206],"min":[0.265613794326782,0],"normalized":false,"type":"VEC2"},{"bufferView":74,"byteOffset":0,"componentType":5123,"count":36,"max":[23],"min":[0],"normalized":false,"type":"SCALAR"}],"asset":{"generator":"Godot Engine v4.3.stable.official@77dcf97d82cbfe4e4615475fa52ca03da645dbd8","version":"2.0"},"bufferViews":[{"buffer":0,"byteLength":288,"byteOffset":0,"byteStride":12,"target":34962},{"buffer":0,"byteLength":384,"byteOffset":288,"byteStride":16,"target":34962},{"buffer":0,"byteLength":288,"byteOffset":672,"byteStride":12,"target":34962},{"buffer":0,"byteLength":192,"byteOffset":960,"byteStride":8,"target":34962},{"buffer":0,"byteLength":72,"byteOffset":1152,"target":34963},{"buffer":0,"byteLength":288,"byteOffset":1224,"byteStride":12,"target":34962},{"buffer":0,"byteLength":384,"byteOffset":1512,"byteStride":16,"target":34962},{"buffer":0,"byteLength":288,"byteOffset":1896,"byteStride":12,"target":34962},{"buffer":0,"byteLength":192,"byteOffset":2184,"byteStride":8,"target":34962},{"buffer":0,"byteLength":72,"byteOffset":2376,"target":34963},{"buffer":0,"byteLength":288,"byteOffset":2448,"byteStride":12,"target":34962},{"buffer":0,"byteLength":384,"byteOffset":2736,"byteStride":16,"target":34962},{"buffer":0,"byteLength":288,"byteOffset":3120,"byteStride":12,"target":34962},{"buffer":0,"byteLength":192,"byteOffset":3408,"byteStride":8,"target":34962},{"buffer":0,"byteLength":72,"byteOffset":3600,"target":34963},{"buffer":0,"byteLength":288,"byteOffset":3672,"byteStride":12,"target":34962},{"buffer":0,"byteLength":384,"byteOffset":3960,"byteStride":16,"target":34962},{"buffer":0,"byteLength":288,"byteOffset":4344,"byteStride":12,"target":34962},{"buffer":0,"byteLength":192,"byteOffset":4632,"byteStride":8,"target":34962},{"buffer":0,"byteLength":72,"byteOffset":4824,"target":34963},{"buffer":0,"byteLength":288,"byteOffset":4896,"byteStride":12,"target":34962},{"buffer":0,"byteLength":384,"byteOffset":5184,"byteStride":16,"target":34962},{"buffer":0,"byteLength":288,"byteOffset":5568,"byteStride":12,"target":34962},{"buffer":0,"byteLength":192,"byteOffset":5856,"byteStride":8,"target":34962},{"buffer":0,"byteLength":72,"byteOffset":6048,"target":34963},{"buffer":0,"byteLength":288,"byteOffset":6120,"byteStride":12,"target":34962},{"buffer":0,"byteLength":384,"byteOffset":6408,"byteStride":16,"target":34962},{"buffer":0,"byteLength":288,"byteOffset":6792,"byteStride":12,"target":34962},{"buffer":0,"byteLength":192,"byteOffset":7080,"byteStride":8,"target":34962},{"buffer":0,"byteLength":72,"byteOffset":7272,"target":34963},{"buffer":0,"byteLength":288,"byteOffset":7344,"byteStride":12,"target":34962},{"buffer":0,"byteLength":384,"byteOffset":7632,"byteStride":16,"target":34962},{"buffer":0,"byteLength":288,"byteOffset":8016,"byteStride":12,"target":34962},{"buffer":0,"byteLength":192,"byteOffset":8304,"byteStride":8,"target":34962},{"buffer":0,"byteLength":72,"byteOffset":8496,"target":34963},{"buffer":0,"byteLength":288,"byteOffset":8568,"byteStride":12,"target":34962},{"buffer":0,"byteLength":384,"byteOffset":8856,"byteStride":16,"target":34962},{"buffer":0,"byteLength":288,"byteOffset":9240,"byteStride":12,"target":34962},{"buffer":0,"byteLength":192,"byteOffset":9528,"byteStride":8,"target":34962},{"buffer":0,"byteLength":72,"byteOffset":9720,"target":34963},{"buffer":0,"byteLength":288,"byteOffset":9792,"byteStride":12,"target":34962},{"buffer":0,"byteLength":384,"byteOffset":10080,"byteStride":16,"target":34962},{"buffer":0,"byteLength":288,"byteOffset":10464,"byteStride":12,"target":34962},{"buffer":0,"byteLength":192,"byteOffset":10752,"byteStride":8,"target":34962},{"buffer":0,"byteLength":72,"byteOffset":10944,"target":34963},{"buffer":0,"byteLength":288,"byteOffset":11016,"byteStride":12,"target":34962},{"buffer":0,"byteLength":384,"byteOffset":11304,"byteStride":16,"target":34962},{"buffer":0,"byteLength":288,"byteOffset":11688,"byteStride":12,"target":34962},{"buffer":0,"byteLength":192,"byteOffset":11976,"byteStride":8,"target":34962},{"buffer":0,"byteLength":72,"byteOffset":12168,"target":34963},{"buffer":0,"byteLength":288,"byteOffset":12240,"byteStride":12,"target":34962},{"buffer":0,"byteLength":384,"byteOffset":12528,"byteStride":16,"target":34962},{"buffer":0,"byteLength":288,"byteOffset":12912,"byteStride":12,"target":34962},{"buffer":0,"byteLength":192,"byteOffset":13200,"byteStride":8,"target":34962},{"buffer":0,"byteLength":72,"byteOffset":13392,"target":34963},{"buffer":0,"byteLength":288,"byteOffset":13464,"byteStride":12,"target":34962},{"buffer":0,"byteLength":384,"byteOffset":13752,"byteStride":16,"target":34962},{"buffer":0,"byteLength":288,"byteOffset":14136,"byteStride":12,"target":34962},{"buffer":0,"byteLength":192,"byteOffset":14424,"byteStride":8,"target":34962},{"buffer":0,"byteLength":72,"byteOffset":14616,"target":34963},{"buffer":0,"byteLength":288,"byteOffset":14688,"byteStride":12,"target":34962},{"buffer":0,"byteLength":384,"byteOffset":14976,"byteStride":16,"target":34962},{"buffer":0,"byteLength":288,"byteOffset":15360,"byteStride":12,"target":34962},{"buffer":0,"byteLength":192,"byteOffset":15648,"byteStride":8,"target":34962},{"buffer":0,"byteLength":72,"byteOffset":15840,"target":34963},{"buffer":0,"byteLength":288,"byteOffset":15912,"byteStride":12,"target":34962},{"buffer":0,"byteLength":384,"byteOffset":16200,"byteStride":16,"target":34962},{"buffer":0,"byteLength":288,"byteOffset":16584,"byteStride":12,"target":34962},{"buffer":0,"byteLength":192,"byteOffset":16872,"byteStride":8,"target":34962},{"buffer":0,"byteLength":72,"byteOffset":17064,"target":34963},{"buffer":0,"byteLength":288,"byteOffset":17136,"byteStride":12,"target":34962},{"buffer":0,"byteLength":384,"byteOffset":17424,"byteStride":16,"target":34962},{"buffer":0,"byteLength":288,"byteOffset":17808,"byteStride":12,"target":34962},{"buffer":0,"byteLength":192,"byteOffset":18096,"byteStride":8,"target":34962},{"buffer":0,"byteLength":72,"byteOffset":18288,"target":34963}],"buffers":[{"byteLength":18360,"uri":"shovel_stone0.bin"}],"extensionsUsed":["GODOT_single_root"],"images":[{"uri":"textures%2Fmaterial_3_albedo.png"},{"uri":"textures%2Fmaterial_3_albedo2.png"}],"materials":[{"extensions":{},"pbrMetallicRoughness":{"baseColorFactor":[0.099186547100544,0.099186547100544,0.099186547100544,1],"baseColorTexture":{"index":0},"metallicFactor":0,"roughnessFactor":1}},{"alphaCutoff":0.0500000007450581,"alphaMode":"MASK","doubleSided":true,"extensions":{},"name":"material_3","pbrMetallicRoughness":{"baseColorFactor":[0.99999988079071,0.99999988079071,0.99999988079071,1],"baseColorTexture":{"index":1},"metallicFactor":0,"roughnessFactor":1}}],"meshes":[{"extras":{"targetNames":[]},"primitives":[{"attributes":{"NORMAL":2,"POSITION":0,"TANGENT":1,"TEXCOORD_0":3},"indices":4,"material":0,"mode":4}]},{"extras":{"targetNames":[]},"primitives":[{"attributes":{"NORMAL":7,"POSITION":5,"TANGENT":6,"TEXCOORD_0":8},"indices":9,"material":0,"mode":4}]},{"extras":{"targetNames":[]},"primitives":[{"attributes":{"NORMAL":12,"POSITION":10,"TANGENT":11,"TEXCOORD_0":13},"indices":14,"material":0,"mode":4}]},{"extras":{"targetNames":[]},"primitives":[{"attributes":{"NORMAL":17,"POSITION":15,"TANGENT":16,"TEXCOORD_0":18},"indices":19,"material":0,"mode":4}]},{"extras":{"targetNames":[]},"primitives":[{"attributes":{"NORMAL":22,"POSITION":20,"TANGENT":21,"TEXCOORD_0":23},"indices":24,"material":0,"mode":4}]},{"extras":{"targetNames":[]},"primitives":[{"attributes":{"NORMAL":27,"POSITION":25,"TANGENT":26,"TEXCOORD_0":28},"indices":29,"material":0,"mode":4}]},{"extras":{"targetNames":[]},"primitives":[{"attributes":{"NORMAL":32,"POSITION":30,"TANGENT":31,"TEXCOORD_0":33},"indices":34,"material":0,"mode":4}]},{"extras":{"targetNames":[]},"primitives":[{"attributes":{"NORMAL":37,"POSITION":35,"TANGENT":36,"TEXCOORD_0":38},"indices":39,"material":0,"mode":4}]},{"extras":{"targetNames":[]},"primitives":[{"attributes":{"NORMAL":42,"POSITION":40,"TANGENT":41,"TEXCOORD_0":43},"indices":44,"material":0,"mode":4}]},{"extras":{"targetNames":[]},"primitives":[{"attributes":{"NORMAL":47,"POSITION":45,"TANGENT":46,"TEXCOORD_0":48},"indices":49,"material":1,"mode":4}]},{"extras":{"targetNames":[]},"primitives":[{"attributes":{"NORMAL":52,"POSITION":50,"TANGENT":51,"TEXCOORD_0":53},"indices":54,"material":1,"mode":4}]},{"extras":{"targetNames":[]},"primitives":[{"attributes":{"NORMAL":57,"POSITION":55,"TANGENT":56,"TEXCOORD_0":58},"indices":59,"material":1,"mode":4}]},{"extras":{"targetNames":[]},"primitives":[{"attributes":{"NORMAL":62,"POSITION":60,"TANGENT":61,"TEXCOORD_0":63},"indices":64,"material":1,"mode":4}]},{"extras":{"targetNames":[]},"primitives":[{"attributes":{"NORMAL":67,"POSITION":65,"TANGENT":66,"TEXCOORD_0":68},"indices":69,"material":1,"mode":4}]},{"extras":{"targetNames":[]},"primitives":[{"attributes":{"NORMAL":72,"POSITION":70,"TANGENT":71,"TEXCOORD_0":73},"indices":74,"material":1,"mode":4}]}],"nodes":[{"children":[1],"name":"shovel_64"},{"children":[2,3,4,5,6,7,8,9,10,11,12,13,14,15,16],"name":"Node3D","rotation":[0.625780761241913,0.329239159822464,-0.62578076124191,0.329239219427109],"scale":[0.316150009632111,0.316149413585663,0.316149413585663],"translation":[0.228102996945381,-0.13506099581718,0]},{"mesh":0,"name":"Object_92","translation":[-0.0625,0.65625,-0.0625]},{"mesh":1,"name":"Object_94","translation":[0.0937502011656761,1.15625,0]},{"mesh":2,"name":"Object_96","rotation":[0,-0.1950900554657,0,0.980785310268402],"translation":[0.109375,1.15625,0.171875]},{"mesh":3,"name":"Object_98","rotation":[0,-0.1950900554657,0,0.980785310268402],"translation":[0.109375,1.15625,-0.015625]},{"mesh":4,"name":"Object_100","rotation":[0,0,0.195090055465698,0.980785310268402],"translation":[0.125,1.16561996936798,0]},{"mesh":5,"name":"Object_102","rotation":[0,0.195090055465698,0,0.980785310268402],"translation":[0.109375,1.15625,0.015625]},{"mesh":6,"name":"Object_104","rotation":[0,0.195090055465698,0,0.980785310268402],"translation":[0.109375,0.90625,-0.171875]},{"mesh":7,"name":"Object_106","translation":[-0.03125,0.65625,-0.0625]},{"mesh":8,"name":"Object_108","translation":[0.125,1.15625,0]},{"mesh":9,"name":"Object_111","translation":[-0.0625,-0.09374990314245,0]},{"mesh":10,"name":"Object_113","translation":[-0.0625,-0.09374990314245,0]},{"mesh":11,"name":"Object_115","translation":[-0.0625,-0.09374990314245,0]},{"mesh":12,"name":"Object_117","translation":[-0.0625,-0.09374990314245,0]},{"mesh":13,"name":"Object_119","translation":[-0.0625,0.65625,0]},{"mesh":14,"name":"Object_121","translation":[-0.0625,-0.09374990314245,0]}],"samplers":[{"magFilter":9728,"minFilter":9728,"wrapS":10497,"wrapT":10497}],"scene":0,"scenes":[{"nodes":[0]}],"textures":[{"sampler":0,"source":0},{"sampler":0,"source":1}]}